<svg xmlns="http://www.w3.org/2000/svg" xmlns:xlink="http://www.w3.org/1999/xlink" width="1123" height="841" viewBox="0 0 1123 841">
  <defs>
    <clipPath id="clip-family01">
      <rect width="1123" height="841"/>
    </clipPath>
  </defs>
  <g id="family01" clip-path="url(#clip-family01)">
    <g id="family1" transform="translate(-228.6 -162.651)">
      <g id="box_1_">
        <rect id="Rectangle_1" data-name="Rectangle 1" width="169.6" height="169.6" transform="translate(801 835.4)"/>
        <g id="cat">
          <path id="Path_1" data-name="Path 1" d="M745.5,1005.2v-.3c-1.4-8.7,2.6-15.4,12.3-20.8,19.5-10.7,80.1-30.3,80.7-30.5.8-.3,85.9-29.8,160.1-29.8,3.8,0,7.5.1,11.2.2,18.9.8,32.8,7.2,41.2,18.9,16.9,23.7,5.9,61.6,5.8,62v.1H745.5Z" fill="#98d8f4"/>
          <path id="Path_2" data-name="Path 2" d="M874.1,975.9a57.391,57.391,0,0,1-7.1-.4c-30.8-3.1-34.1-28.4-33.4-43.1,1.4-28.1,18.7-60.5,28.9-60.5h.5c7.7.9,12.5,26,12.9,28.5h34.2c1.6-1.5,23.5-22.5,33-22.5a4,4,0,0,1,2.7.9c5,4.2,3.8,21.6-2.7,39.7-4.8,13.4-24.2,57.4-69,57.4Z" fill="#98d8f4"/>
          <g id="Group_1" data-name="Group 1">
            <path id="Path_3" data-name="Path 3" d="M874.3,977.7a62.269,62.269,0,0,1-7.4-.4C851.1,975.7,840,968,835,955a2,2,0,0,1,3.7-1.5c4.5,11.6,14.1,18.3,28.5,19.7,17,1.7,48.5-1.8,69.4-45.1a2.012,2.012,0,0,1,3.6,1.8c-7,14.6-16.5,26.6-27.4,34.7A62.247,62.247,0,0,1,874.3,977.7Z"/>
          </g>
          <g id="Group_2" data-name="Group 2">
            <path id="Path_4" data-name="Path 4" d="M882.4,936H871a2,2,0,0,1,0-4h11.4a2,2,0,0,1,0,4Z"/>
          </g>
          <g id="Group_3" data-name="Group 3">
            <path id="Path_5" data-name="Path 5" d="M874,949.7h-.4a2,2,0,0,1-1.6-2.3l2.7-13.7a1.981,1.981,0,0,1,3.9.7l-2.7,13.7A1.934,1.934,0,0,1,874,949.7Z"/>
          </g>
          <g id="Group_4" data-name="Group 4">
            <path id="Path_6" data-name="Path 6" d="M874.9,950.8c-5.2,0-10.1-1.9-13.2-5.7a1.991,1.991,0,0,1,3.1-2.5c4.9,5.9,14.9,5.1,20.9.7a2,2,0,0,1,2.4,3.2A23.323,23.323,0,0,1,874.9,950.8Z"/>
          </g>
          <g id="Group_5" data-name="Group 5">
            <path id="Path_7" data-name="Path 7" d="M904.5,931.1a2.919,2.919,0,0,1-.9-.2,2,2,0,0,1-.9-2.7l1-2a2.012,2.012,0,0,1,3.6,1.8l-1,2A2.107,2.107,0,0,1,904.5,931.1Z"/>
          </g>
          <g id="Group_6" data-name="Group 6">
            <path id="Path_8" data-name="Path 8" d="M929.1,908.4a1.929,1.929,0,0,1-1-.3,1.994,1.994,0,0,1-.8-2.7l4.9-8.8a1.991,1.991,0,0,1,3.5,1.9l-4.9,8.8A1.848,1.848,0,0,1,929.1,908.4Z"/>
          </g>
          <g id="Group_7" data-name="Group 7">
            <path id="Path_9" data-name="Path 9" d="M859.2,906.5a2.006,2.006,0,0,1-2-2v-9.9a2,2,0,0,1,4,0v9.9A2.006,2.006,0,0,1,859.2,906.5Z"/>
          </g>
          <g id="Group_8" data-name="Group 8">
            <path id="Path_10" data-name="Path 10" d="M856.3,931.1a2.919,2.919,0,0,1-.9-.2,2,2,0,0,1-.9-2.7l1-2a2.012,2.012,0,0,1,3.6,1.8l-1,2A2.107,2.107,0,0,1,856.3,931.1Z"/>
          </g>
          <g id="Group_9" data-name="Group 9">
            <path id="Path_11" data-name="Path 11" d="M814.5,1005.9a2.034,2.034,0,0,1-2-1.7c-1.5-9.5,2.8-17,13.2-22.8,5.3-3,14.3-6.9,26.7-11.6a2.025,2.025,0,0,1,1.4,3.8c-12.2,4.7-21,8.5-26.1,11.4-8.9,4.9-12.5,10.9-11.2,18.6a2.021,2.021,0,0,1-1.7,2.3Z"/>
          </g>
          <g id="Group_10" data-name="Group 10">
            <path id="Path_12" data-name="Path 12" d="M906.4,1005.8a2.034,2.034,0,0,1-2-1.7c-1.8-11.2,3.6-18.5,17-22.9,8.4-2.8,14.9-3.8,25.8-4.9,2.4-6.5,14.6-34.8,49.5-37.5a2.01,2.01,0,0,1,.4,4c-36.6,2.9-46.3,35.6-46.4,36a1.805,1.805,0,0,1-1.7,1.4c-11.4,1-17.9,2-26.2,4.8-14.5,4.8-15.4,12-14.4,18.5a2.021,2.021,0,0,1-1.7,2.3Z"/>
          </g>
          <g id="Group_11" data-name="Group 11">
            <path id="Path_13" data-name="Path 13" d="M758.4,1005.8a1.927,1.927,0,0,1-1.9-1.5,12.61,12.61,0,0,1,2.8-11.6,1.985,1.985,0,1,1,3,2.6,8.716,8.716,0,0,0-2,8,1.927,1.927,0,0,1-1.4,2.4A.9.9,0,0,1,758.4,1005.8Z"/>
          </g>
          <g id="Group_12" data-name="Group 12">
            <path id="Path_14" data-name="Path 14" d="M769.3,1005.8a1.927,1.927,0,0,1-1.9-1.5,12.61,12.61,0,0,1,2.8-11.6,1.985,1.985,0,1,1,3,2.6,8.716,8.716,0,0,0-2,8,1.927,1.927,0,0,1-1.4,2.4A.9.9,0,0,1,769.3,1005.8Z"/>
          </g>
          <g id="Group_13" data-name="Group 13">
            <path id="Path_15" data-name="Path 15" d="M827.3,1005.8a1.927,1.927,0,0,1-1.9-1.5,12.61,12.61,0,0,1,2.8-11.6,1.985,1.985,0,1,1,3,2.6,8.716,8.716,0,0,0-2,8,1.927,1.927,0,0,1-1.4,2.4A.9.9,0,0,1,827.3,1005.8Z"/>
          </g>
          <g id="Group_14" data-name="Group 14">
            <path id="Path_16" data-name="Path 16" d="M918.8,1005.8a1.927,1.927,0,0,1-1.9-1.5,12.61,12.61,0,0,1,2.8-11.6,1.985,1.985,0,1,1,3,2.6,8.716,8.716,0,0,0-2,8,1.927,1.927,0,0,1-1.4,2.4A.9.9,0,0,1,918.8,1005.8Z"/>
          </g>
        </g>
        <g id="Group_17" data-name="Group 17">
          <rect id="Rectangle_2" data-name="Rectangle 2" width="251.3" height="169.6" transform="translate(970.2 835.4)" fill="#6c79d9"/>
          <g id="Group_15" data-name="Group 15">
            <path id="Path_17" data-name="Path 17" d="M1221.3,1006.8a2.015,2.015,0,0,1-1.1-.3L969.3,837.3a2.011,2.011,0,1,1,2.3-3.3l250.9,169.2a1.962,1.962,0,0,1,.5,2.8A2.289,2.289,0,0,1,1221.3,1006.8Z"/>
          </g>
          <g id="Group_16" data-name="Group 16">
            <path id="Path_18" data-name="Path 18" d="M970.4,1006.8a2.091,2.091,0,0,1-1.7-.9,2.05,2.05,0,0,1,.5-2.8l250.9-169.2a2.011,2.011,0,1,1,2.3,3.3L971.5,1006.4A1.5,1.5,0,0,1,970.4,1006.8Z"/>
          </g>
        </g>
      </g>
      <g id="box">
        <rect id="Rectangle_3" data-name="Rectangle 3" width="173.2" height="226.3" transform="translate(665.4 482.4)" fill="#f696bb"/>
        <rect id="Rectangle_4" data-name="Rectangle 4" width="90.5" height="226.3" transform="translate(574.9 482.4)" fill="#f696bb"/>
        <path id="Path_19" data-name="Path 19" d="M687.8,440l-22.4,42.4H838.6L861,440Z" fill="#f9494b"/>
        <path id="Path_20" data-name="Path 20" d="M552.4,440l22.5,42.4h90.5L642.9,440Z" fill="#f9494b"/>
        <g id="Group_18" data-name="Group 18">
          <path id="Path_21" data-name="Path 21" d="M780.8,661.8a2.016,2.016,0,0,1-1.1-.3,2.079,2.079,0,0,1-.9-1.9l4.3-31.4-29-12.9a1.948,1.948,0,0,1-1.2-1.7,1.981,1.981,0,0,1,1-1.8l83.7-46.5a1.991,1.991,0,0,1,1.9,3.5l-80.2,44.6L786,625.3a2.087,2.087,0,0,1,1.2,2.1l-4,28.9,54.3-30.2a1.991,1.991,0,0,1,1.9,3.5l-57.8,32.1C781.5,661.7,781.1,661.8,780.8,661.8Z"/>
        </g>
        <g id="Group_19" data-name="Group 19">
          <path id="Path_22" data-name="Path 22" d="M665.4,711.6a2.006,2.006,0,0,1-2-2V482.4a2,2,0,0,1,4,0V709.6A2.006,2.006,0,0,1,665.4,711.6Z"/>
        </g>
      </g>
      <g id="man">
        <path id="Path_23" data-name="Path 23" d="M370.6,1005c-34.4-.9-33.5-57.4-33.5-58v-.2l.2.1c.1,0,13.4,3,34.2,9.5h.1v.1c.1.2,6.6,17,6.6,30.7.1,16.6-7.2,17.8-7.6,17.8Z"/>
        <path id="Path_24" data-name="Path 24" d="M660.8,863.1h0c9.2-2.7,18.5-5.1,28.1-5.2,11.7,0,16.2,2.6,17.9,4.4.8.9,2,5,2,5-3.8,28.8-52.7,33.3-53.2,33.3h-.3Z"/>
        <path id="Path_25" data-name="Path 25" d="M230.8,979.9a15.744,15.744,0,0,1-2-.1h-.2l25.3-166h.2a576.391,576.391,0,0,1,93.4,13.7l.1.1v.1c.1.9,13.9,90,24,128.8l.1.3-.3-.1c-20.8-6.5-34-9.4-34.2-9.5-7.2-1.5-16.1-3.4-25.7-3.4-16.8,0-31.5,6-45.1,18.5C249.1,978.2,235.8,979.9,230.8,979.9Z" fill="#6c79d9"/>
        <path id="Path_26" data-name="Path 26" d="M370.6,1005c14.4-10.4.6-48.8.6-48.8-2.9-8.7-6.4-17.1-10.2-26.1-5.3-12.8-10.8-26-14.7-40.4-10.7-40,.8-61.9.9-62.1l.1-.1h.1c57.5,13.2,101.4,31.6,122.8,41.6-3.6-6.9-41.9-79.6-68.9-128.9l-.1-.2L575,709.4v.2c.2.8,15.9,79.9,23.6,140.7,6.1,48.2,9.8,107.2-15.7,136.2-10.8,12.3-26.5,18.5-46.5,18.5Z" fill="#98d8f4"/>
        <g id="Group_20" data-name="Group 20">
          <path id="Path_27" data-name="Path 27" d="M245.8,870.6a1.923,1.923,0,0,1-2-1.9,2.077,2.077,0,0,1,1.9-2.1c29-1.1,53.2-21.4,56.3-47.2a1.966,1.966,0,0,1,3.9.5c-3.2,27.7-29.1,49.5-60.1,50.7Z"/>
        </g>
        <g id="Group_21" data-name="Group 21">
          <path id="Path_28" data-name="Path 28" d="M540.8,938.2a24.328,24.328,0,0,1-3.8-.3L351.5,907.7a2.022,2.022,0,1,1,.6-4l185.5,30.2a21.418,21.418,0,0,0,12.2-1.8A20.231,20.231,0,0,0,559,905L481.6,747.9a2.012,2.012,0,1,1,3.6-1.8l77.4,157.1a23.811,23.811,0,0,1,1.2,18.5,24.116,24.116,0,0,1-12.2,14A25.839,25.839,0,0,1,540.8,938.2Z"/>
        </g>
        <path id="Path_29" data-name="Path 29" d="M377.6,648.8l.1-.3c2-6.9,4.5-15.1,8-26.6v-.1H509l3,27Z" fill="#6c79d9"/>
        <path id="Path_30" data-name="Path 30" d="M533.4,1005v-.2a489.823,489.823,0,0,1-1.6-93v-.1l133.9-74.6-4.5,26.1-5.4,37.2c-1.9,18.9-4.5,44.9,22.7,68.7,11.6,10.2,16.9,19.3,19.2,25.2,2.5,6.4,2.3,10.3,2.3,10.4v.2l-166.6.1Z" fill="#6c79d9"/>
        <path id="Path_31" data-name="Path 31" d="M542.1,912.8a61.56,61.56,0,0,1-10.1-.7h-.2v-.2c6.6-84.2,33.3-141.1,35.5-145.7H448.1c-28.3,0-50.3-8-63.7-23.1-12.8-14.5-17.7-34.8-14.5-60.2,1.1-9,3.5-19.3,7.8-34.3v-.1H511.8c.6,0,63.4,1,96.4,4.9,26.8,3.2,43.8,8.3,56.7,17.2,15.6,10.7,24.9,26.9,29.1,50.9,5.6,31.5,14,113.6,14.8,145.8-8.4-17.6-47.6-3.8-47.6-3.8-14.7,5.9-19.6,8.7-31,15.5-7,4.2-16.5,9.9-32.7,18.8C575.3,910.2,555.1,912.8,542.1,912.8Z" fill="#98d8f4"/>
        <g id="Group_22" data-name="Group 22">
          <path id="Path_32" data-name="Path 32" d="M532,913.9h-.2a1.961,1.961,0,0,1-1.8-2.2c6.9-87.7,35.5-146.1,35.8-146.6a2.012,2.012,0,1,1,3.6,1.8c-.3.6-28.6,58.3-35.4,145.2A2.046,2.046,0,0,1,532,913.9Z"/>
        </g>
        <g id="Group_24" data-name="Group 24">
          <path id="Path_33" data-name="Path 33" d="M437.2,483.2A19.2,19.2,0,1,1,456.4,464,19.2,19.2,0,0,1,437.2,483.2Z" fill="#fff"/>
          <g id="Group_23" data-name="Group 23">
            <path id="Path_34" data-name="Path 34" d="M437.2,446.8A17.2,17.2,0,1,1,420,464a17.2,17.2,0,0,1,17.2-17.2m0-4A21.2,21.2,0,1,0,458.4,464a21.211,21.211,0,0,0-21.2-21.2Z"/>
          </g>
        </g>
        <g id="Group_25" data-name="Group 25">
          <path id="Path_35" data-name="Path 35" d="M434.6,469.2a2.091,2.091,0,0,1-1.7-.9,1.985,1.985,0,0,1,.6-2.8l12.5-8.3a2.025,2.025,0,0,1,2.2,3.4l-12.5,8.3A2.016,2.016,0,0,1,434.6,469.2Z"/>
        </g>
        <g id="Group_26" data-name="Group 26">
          <path id="Path_36" data-name="Path 36" d="M475.5,482.7c-9,0-17.5-5.6-24.6-16.2-25.2-37.3-21.5-54.1-7.4-69,.1-.1,17-17,37.8-17a38.647,38.647,0,0,1,11.3,1.7c14.6,4.5,21.8,29.8,16.7,59C505.1,465.6,491.2,482.7,475.5,482.7Z" fill="#fff"/>
          <path id="Path_37" data-name="Path 37" d="M481.3,382.5a34.668,34.668,0,0,1,10.7,1.6c13.4,4.1,20.1,29,15.3,56.7-2,11.8-6.5,22.2-12.6,29.5-5.7,6.7-12.5,10.4-19.2,10.4-8.3,0-16.2-5.3-23-15.3-24.5-36.2-21.1-52.3-7.6-66.5.6-.7,16.6-16.4,36.4-16.4m0-4c-22,0-39.3,17.6-39.3,17.6-15.9,16.8-17.2,35.4,7.2,71.5,8,11.9,17.3,17.1,26.3,17.1,16.2,0,31.3-17.1,35.8-43.2,5.3-30.7-2.8-56.5-18.1-61.2a39.119,39.119,0,0,0-11.9-1.8Z"/>
        </g>
        <path id="Path_38" data-name="Path 38" d="M442,396.1c-13.8,14.6-16.6,30.6-1.1,58.1,26.3-17.1,17.5-56.5,17.5-56.5,27.5,13.8,52.7,7.6,52.7,7.6-2.9-13.1-9.3-22.4-17.9-25C465.8,371.8,442,396.1,442,396.1Z"/>
        <g id="Group_27" data-name="Group 27">
          <path id="Path_39" data-name="Path 39" d="M492.3,441.9a2.088,2.088,0,0,1-1.6-.8,1.956,1.956,0,0,1,.4-2.8,5.816,5.816,0,0,0,2-2.7c.8-2.2-.7-8.3-2.3-13.9a2.026,2.026,0,0,1,3.9-1.1c2.6,9.3,3.2,13.6,2.3,16.3a9.167,9.167,0,0,1-3.4,4.6A2.421,2.421,0,0,1,492.3,441.9Z"/>
        </g>
        <g id="Group_28" data-name="Group 28">
          <path id="Path_40" data-name="Path 40" d="M479.4,430.7a2.034,2.034,0,0,1-2-1.7l-.3-2.2a2.022,2.022,0,0,1,4-.6l.3,2.2a2.1,2.1,0,0,1-1.7,2.3Z"/>
        </g>
        <g id="Group_29" data-name="Group 29">
          <path id="Path_41" data-name="Path 41" d="M502.4,421.6a2.034,2.034,0,0,1-2-1.7l-.3-2.1a2.022,2.022,0,0,1,4-.6l.3,2.1a2.021,2.021,0,0,1-1.7,2.3Z"/>
        </g>
        <g id="Group_30" data-name="Group 30">
          <path id="Path_42" data-name="Path 42" d="M485.9,454.1a9.194,9.194,0,0,1-9-7.3,2,2,0,1,1,3.9-.9,5.261,5.261,0,0,0,6,4.1h.1c.2-.1.5-.1.7-.2a2.012,2.012,0,1,1,1.8,3.6,5.271,5.271,0,0,1-1.5.5h-.3A5.245,5.245,0,0,1,485.9,454.1Z"/>
        </g>
        <g id="Group_31" data-name="Group 31">
          <path id="Path_43" data-name="Path 43" d="M540.9,664.8c-39.7,0-60.9-41.8-61.8-43.6a387.163,387.163,0,0,1-17.3-38.4L454,558l68.9-33.9,13.7,25.1c6.9,14.6,10.8,23.5,11.4,25a1.981,1.981,0,0,0,1.1,1.1,1.7,1.7,0,0,0,.7.1,1.883,1.883,0,0,0,.8-.2l2.2-1c112.4-51.8,133.5-59.9,136-60.1h.3a3.225,3.225,0,0,1,2.3,1.9c.8,2.1-.3,5.4-3.1,9.2a2.133,2.133,0,0,0-.1,2.3,1.965,1.965,0,0,0,1.7.9.6.6,0,0,0,.4-.1l.8-.2c14.9-3.4,26.1-5.4,33.4-5.8h1q4.8,0,6.9,2.4a6.992,6.992,0,0,1,1.4,5.4,1.962,1.962,0,0,0,1.3,2.1c2.2.9,3.5,2,3.9,3.5.7,2.4-1.1,5.6-2.2,6.9a2.026,2.026,0,0,0-.4,1.5,2.223,2.223,0,0,0,.8,1.3,4.032,4.032,0,0,1,1.7,3.3c-.2,2.4-2.4,5-6,6.7-3.3,1.6-8.8,3.1-14.7,4.7-4.2,1-15.1,4.2-19,5.4a2.087,2.087,0,0,0-1.4,2.2,2.034,2.034,0,0,0,2,1.7h5.6c25.1,0,27.4,3.1,27.5,4,.4,3.7-3.5,4.7-14.8,6.5l-.6.1c-11.3,1.8-26.8,4.3-43.4,13.7-12,6.8-25.1,16-37.8,24.9-28.6,20-60.9,42.7-89.5,45.7A27.062,27.062,0,0,1,540.9,664.8Z" fill="#fff"/>
          <path id="Path_44" data-name="Path 44" d="M689,516.1a1.44,1.44,0,0,1,.7.6c.4,1-.1,3.5-2.9,7.2a4.071,4.071,0,0,0-.2,4.6,3.814,3.814,0,0,0,3.4,1.8,2.77,2.77,0,0,0,.9-.1l.8-.2c14.8-3.4,25.9-5.3,33-5.7h1c3.9,0,5,1.3,5.4,1.7a6.08,6.08,0,0,1,1,3.9,3.966,3.966,0,0,0,2.5,4.2c1.5.6,2.5,1.3,2.7,2.1.4,1.5-.9,3.9-1.8,5.2a3.753,3.753,0,0,0-.8,3,4.694,4.694,0,0,0,1.6,2.7,1.659,1.659,0,0,1,.8,1.5c-.1,1.4-1.6,3.5-4.8,5h-.1c-3.1,1.5-8.7,3-14.2,4.5-4.3,1.1-15.3,4.2-19.1,5.5a3.956,3.956,0,0,0-2.7,4.4,4.082,4.082,0,0,0,4,3.4h5.6c4.7,0,10.8.1,16.1.6,6.6.7,8.8,1.7,9.5,2.2,0,.4-.3.8-1.6,1.3-2.4,1-6.7,1.7-11.6,2.5H718l-.4.1c-11.4,1.8-27.1,4.4-44.1,13.9-12.1,6.9-25.2,16.1-37.9,25-28.3,19.9-60.4,42.4-88.5,45.4-2.1.2-4.1.3-6.1.3-38.5,0-59.2-40.7-60-42.5v-.1A381.233,381.233,0,0,1,463.8,582l-7.2-23.1,65.7-32.3L535,549.9c6.8,14.5,10.8,23.4,11.4,24.8a3.962,3.962,0,0,0,2.2,2.2,4.012,4.012,0,0,0,1.5.3,3.533,3.533,0,0,0,1.7-.4l2.2-1c108.3-49.8,131.3-58.9,135-59.7m.1-4.1c-.1.1-.1.1-.2.1-6,0-116.4,50.9-139,61.3-.7-1.7-4.8-10.9-11.5-25.1l-14.6-26.8L451.6,557l8.3,26.5a392.683,392.683,0,0,0,17.4,38.6c.2.4,22,44.7,63.6,44.7,2.1,0,4.3-.1,6.5-.3,29.1-3.1,61.6-25.9,90.4-46.1,13.4-9.4,26-18.2,37.6-24.8,16.5-9.3,31.9-11.7,43.1-13.5,10.8-1.7,17.4-2.7,16.7-8.7-.6-5.5-18.9-5.8-29.5-5.8h-5.6c4-1.3,14.8-4.4,18.9-5.4,6-1.6,11.6-3.1,15-4.8,4.2-2,6.9-5.2,7.1-8.4a5.662,5.662,0,0,0-2.5-5c.7-.9,3.5-5,2.5-8.7q-.9-3.15-5.1-4.8a9.4,9.4,0,0,0-1.9-7c-1.8-2.1-4.6-3.1-8.4-3.1h-1.1c-11.8.6-31.1,5.2-34.6,6,3.3-4.4,4.5-8.3,3.4-11.1a5.352,5.352,0,0,0-4.3-3.3Z"/>
        </g>
        <path id="Path_45" data-name="Path 45" d="M385.8,622.3h0A48.6,48.6,0,0,1,367,583.7c0-16.9,9.1-36.8,27.2-59.2l1.1-1.4c23.2-28.7,45.1-55.9,72-55.9a26.2,26.2,0,0,1,2.8.1c19.3,1.3,33.1,11.1,43.5,30.6,9.5,18,17,33.9,23,46.7l1.8,3.8-78.5,34.7A410.645,410.645,0,0,0,477.2,622l.2.3Z" fill="#6c79d9"/>
        <g id="Group_32" data-name="Group 32">
          <path id="Path_46" data-name="Path 46" d="M479.4,624.1H386a2,2,0,0,1,0-4h93.4a2,2,0,0,1,0,4Z"/>
        </g>
        <g id="Group_33" data-name="Group 33">
          <path id="Path_47" data-name="Path 47" d="M500.1,650.6h-122a2,2,0,0,1,0-4h122a2,2,0,0,1,0,4Z"/>
        </g>
        <g id="Group_34" data-name="Group 34">
          <path id="Path_48" data-name="Path 48" d="M462.2,585.6a2.157,2.157,0,0,1-1.9-1.3l-1.7-4.1c-3.5-8.8-8.4-20.8-10.7-27.3a2.025,2.025,0,0,1,3.8-1.4c2.3,6.4,7.1,18.4,10.6,27.2l1.7,4.1a2.03,2.03,0,0,1-1.1,2.6A.952.952,0,0,1,462.2,585.6Z"/>
        </g>
        <g id="Group_35" data-name="Group 35">
          <path id="Path_49" data-name="Path 49" d="M394.1,650.6h-.3a1.951,1.951,0,0,1-1.6-2.3l4.6-26.5a1.981,1.981,0,0,1,3.9.7L396.1,649A2.043,2.043,0,0,1,394.1,650.6Z"/>
        </g>
        <g id="Group_36" data-name="Group 36">
          <path id="Path_50" data-name="Path 50" d="M420.7,650.6h-.1a2.077,2.077,0,0,1-1.9-2.1l1.7-26.5a2,2,0,1,1,4,.2l-1.7,26.5A2.054,2.054,0,0,1,420.7,650.6Z"/>
        </g>
        <g id="Group_37" data-name="Group 37">
          <path id="Path_51" data-name="Path 51" d="M446.3,650.6h0a1.97,1.97,0,0,1-2-2.1L445,622a2,2,0,1,1,4,.2l-.7,26.5A1.988,1.988,0,0,1,446.3,650.6Z"/>
        </g>
        <g id="Group_38" data-name="Group 38">
          <path id="Path_52" data-name="Path 52" d="M473.8,650.6a1.985,1.985,0,0,1-2-1.9l-1.3-26.5a2.005,2.005,0,0,1,1.9-2.1,2.077,2.077,0,0,1,2.1,1.9l1.3,26.5a2.022,2.022,0,0,1-2,2.1Z"/>
        </g>
        <g id="Group_39" data-name="Group 39">
          <path id="Path_53" data-name="Path 53" d="M594.5,768H448.1c-14.1,0-26.7-1.9-37.5-5.7a2.025,2.025,0,1,1,1.4-3.8c10.3,3.6,22.5,5.5,36.1,5.5H594.5a2,2,0,0,1,0,4Z"/>
        </g>
        <g id="Group_40" data-name="Group 40">
          <path id="Path_54" data-name="Path 54" d="M586.1,1006.8a2.034,2.034,0,0,1-2-1.7c-4.5-28.6-27.6-50.2-53.6-50.2a2,2,0,0,1,0-4c28,0,52.8,23,57.6,53.6a2.021,2.021,0,0,1-1.7,2.3Z"/>
        </g>
        <g id="Group_41" data-name="Group 41">
          <path id="Path_55" data-name="Path 55" d="M597.6,899.5h-.4a1.916,1.916,0,0,1-1.5-2.4l34.2-156.3a22.648,22.648,0,0,0,.6-5.3,24.967,24.967,0,0,0-24.9-24.9H452a28.561,28.561,0,0,1-5.8-.6,26.523,26.523,0,0,1-19.8-31.6l6.9-30.2a2,2,0,1,1,3.9.9l-6.9,30.2a22.531,22.531,0,0,0,16.8,26.8,20.394,20.394,0,0,0,4.9.5H605.5a28.979,28.979,0,0,1,28.9,28.9,30.054,30.054,0,0,1-.6,6.1L599.6,897.9A2.106,2.106,0,0,1,597.6,899.5Z"/>
        </g>
        <g id="Group_42" data-name="Group 42">
          <path id="Path_56" data-name="Path 56" d="M496.1,882.9a2.919,2.919,0,0,1-.9-.2c-7.7-3.9-25-11.2-25.2-11.2a2,2,0,1,1,1.5-3.7c.7.3,17.6,7.4,25.4,11.4a2,2,0,0,1,.9,2.7A1.936,1.936,0,0,1,496.1,882.9Z"/>
        </g>
        <g id="Group_43" data-name="Group 43">
          <path id="Path_57" data-name="Path 57" d="M628,943.8a2.132,2.132,0,0,1-2-1.6,1.951,1.951,0,0,1,1.6-2.3l28.8-5.6a1.981,1.981,0,1,1,.7,3.9l-28.8,5.6Z"/>
        </g>
        <g id="Group_44" data-name="Group 44">
          <path id="Path_58" data-name="Path 58" d="M643.7,974.3a1.962,1.962,0,0,1-1.1-3.6l22.6-16.1a2.011,2.011,0,0,1,2.3,3.3L644.9,974A2.663,2.663,0,0,1,643.7,974.3Z"/>
        </g>
        <g id="Group_45" data-name="Group 45">
          <path id="Path_59" data-name="Path 59" d="M653.9,938.3a2.007,2.007,0,0,1-1.1-3.7L728,885.9a25.682,25.682,0,0,1,4.4-2.2,22.167,22.167,0,0,1,28.4,13.2,27.08,27.08,0,0,1,1.2,4.7,22.212,22.212,0,0,1-19.1,24.9l-88.8,11.7C654.1,938.3,654,938.3,653.9,938.3ZM740,886.4a18.836,18.836,0,0,0-6.2,1.1,24.027,24.027,0,0,0-3.6,1.8l-67.7,43.9,80-10.5a18.431,18.431,0,0,0,12.1-7,18.117,18.117,0,0,0,3.6-13.5,24.932,24.932,0,0,0-1-3.9A18.384,18.384,0,0,0,740,886.4Z"/>
        </g>
        <g id="Group_46" data-name="Group 46">
          <path id="Path_60" data-name="Path 60" d="M721.5,977.3a2.132,2.132,0,0,1-2-1.6c-7.5-39.1-64.9-37.2-65.5-37.2a2,2,0,0,1-.2-4,110.254,110.254,0,0,1,31.4,4c21.6,6.2,34.7,18.8,38.1,36.4a1.951,1.951,0,0,1-1.6,2.3C721.7,977.3,721.6,977.3,721.5,977.3Z"/>
        </g>
        <g id="Group_47" data-name="Group 47">
          <path id="Path_61" data-name="Path 61" d="M316.4,1006.8h-1.3c-5.8-.17-11.3-1.587-15.2-4.081-4-2.494-6-5.725-5.7-9.126l4.7-50.734c0-.51.7-.964,1.7-1.077a2.5,2.5,0,0,1,2.2.68L337,989.4a10.9,10.9,0,0,1,1.3,2.664c1,3.345-.3,6.689-3.7,9.41s-8.5,4.535-14.4,5.158C318.9,1006.743,317.7,1006.8,316.4,1006.8Zm-14-58.84-4.2,45.746c-.3,2.778,1.4,5.385,4.7,7.483a25.16,25.16,0,0,0,12.5,3.344,23.181,23.181,0,0,0,4-.17,22.455,22.455,0,0,0,11.8-4.195c2.8-2.267,3.9-4.988,3.1-7.709a13.647,13.647,0,0,0-1.1-2.267Z"/>
        </g>
        <g id="Group_48" data-name="Group 48">
          <path id="Path_62" data-name="Path 62" d="M250.3,1005.1a2,2,0,0,1,0-4c38.4-.2,47.7-53.2,48.4-57.3l-3.3-27.2a1.966,1.966,0,1,1,3.9-.5l3.3,27.5v.5a110.255,110.255,0,0,1-9.6,30.2c-9.9,20.1-24.7,30.7-42.7,30.8Z"/>
        </g>
        <g id="Group_49" data-name="Group 49">
          <path id="Path_63" data-name="Path 63" d="M282.9,952.5a1.965,1.965,0,0,1-1.7-.9l-14-22.4a2.025,2.025,0,0,1,3.4-2.2l14,22.4a2.074,2.074,0,0,1-.6,2.8A2.278,2.278,0,0,1,282.9,952.5Z"/>
        </g>
        <g id="Group_50" data-name="Group 50">
          <path id="Path_64" data-name="Path 64" d="M666.4,537.5a2.007,2.007,0,0,1-1.9-1.4,1.985,1.985,0,0,1,1.3-2.5c11.7-3.9,24.2-7.1,24.3-7.1a1.965,1.965,0,0,1,1,3.8c-.1,0-12.5,3.2-24.1,7.1A1.269,1.269,0,0,1,666.4,537.5Z"/>
        </g>
        <g id="Group_51" data-name="Group 51">
          <path id="Path_65" data-name="Path 65" d="M682.1,546.4a1.95,1.95,0,0,1-1.9-1.4,2,2,0,0,1,1.4-2.5c23.5-6.8,51.1-12.8,51.3-12.8a2,2,0,0,1,.9,3.9c-.3.1-27.7,6-51.1,12.8Z"/>
        </g>
        <g id="Group_52" data-name="Group 52">
          <path id="Path_66" data-name="Path 66" d="M687,559.1a2.007,2.007,0,0,1-1.9-1.4,1.985,1.985,0,0,1,1.3-2.5,396.187,396.187,0,0,1,49.2-12.9,1.981,1.981,0,1,1,.7,3.9,386.373,386.373,0,0,0-48.6,12.7A1.078,1.078,0,0,1,687,559.1Z"/>
        </g>
      </g>
      <g id="clothes">
        <path id="Path_67" data-name="Path 67" d="M875.9,274.7h139.7a35.4,35.4,0,0,1,35.4,35.4h0a35.4,35.4,0,0,1-35.4,35.4H875.9a35.4,35.4,0,0,1-35.4-35.4h0A35.465,35.465,0,0,1,875.9,274.7Z" fill="#6c79d9"/>
        <path id="Path_68" data-name="Path 68" d="M875.9,345.5h139.7a35.4,35.4,0,0,1,35.4,35.4h0a35.4,35.4,0,0,1-35.4,35.4H875.9a35.4,35.4,0,0,1-35.4-35.4h0A35.4,35.4,0,0,1,875.9,345.5Z" fill="#6c79d9"/>
        <g id="Group_53" data-name="Group 53">
          <path id="Path_69" data-name="Path 69" d="M945.8,418.4a2.006,2.006,0,0,1-2-2V274.7a2,2,0,1,1,4,0V416.4A2.006,2.006,0,0,1,945.8,418.4Z"/>
        </g>
        <g id="Group_54" data-name="Group 54">
          <path id="Path_70" data-name="Path 70" d="M945.6,278.5h-.2a2.019,2.019,0,0,1-1.8-1.7l-13.1-88.6a16.08,16.08,0,0,1-.2-5,22.195,22.195,0,0,1,28.6-19.6A21.557,21.557,0,0,1,972,174.3a21.873,21.873,0,0,1,1.6,17L947.4,277A1.746,1.746,0,0,1,945.6,278.5Zm6.9-111.8a18.456,18.456,0,0,0-18.3,16.8,11.939,11.939,0,0,0,.2,3.9v.1l11.8,79.8,23.6-77.2a18.086,18.086,0,0,0-12-22.7,19.79,19.79,0,0,0-4-.7A5.633,5.633,0,0,1,952.5,166.7Z"/>
        </g>
        <g id="Group_55" data-name="Group 55">
          <path id="Path_71" data-name="Path 71" d="M945.7,277.1a2.92,2.92,0,0,1-.9-.2l-63-31.3a21.652,21.652,0,0,1-3.2-2.1,18,18,0,0,1-2.7-25.1,13.216,13.216,0,0,1,2.9-2.9,18.342,18.342,0,0,1,13.2-3.7,18.016,18.016,0,0,1,11.9,6.7l43.4,55.3a1.961,1.961,0,0,1,0,2.5A2.088,2.088,0,0,1,945.7,277.1Zm-55.9-61.4a13.179,13.179,0,0,0-8.5,3,8.358,8.358,0,0,0-2.1,2.1l-.1.1a13.915,13.915,0,0,0,2,19.5c1,.7,1.8,1.3,2.5,1.7l55.1,27.4-38-48.5a13.745,13.745,0,0,0-9.3-5.2C890.9,215.8,890.3,215.7,889.8,215.7Z"/>
        </g>
        <g id="Group_56" data-name="Group 56">
          <path id="Path_72" data-name="Path 72" d="M946.2,277a2.106,2.106,0,0,1-1.3-.5,2.029,2.029,0,0,1-.2-2.8,109.172,109.172,0,0,1,24.6-20.1c19.3-11.4,37.6-12.3,52.7-2.5a2.025,2.025,0,0,1-2.2,3.4c-33.6-21.6-71.7,21.4-72.1,21.8A1.8,1.8,0,0,1,946.2,277Z"/>
        </g>
      </g>
      <g id="woman">
        <path id="Path_73" data-name="Path 73" d="M1022.4,835.8l-7.7-41.3.1-.1c18.5-21.2,41.4-29.6,56.6-30.5h.2v.2a477.806,477.806,0,0,1-8.5,71.5v.2Z"/>
        <path id="Path_74" data-name="Path 74" d="M949.7,731.5c-.5,0-51-2.5-51-31,6.8-12.5,26-14.4,36.8-14.4,4.1,0,6.9.3,7,.3h.1v.1s.7,3.6,1.1,5.6c2.2,10.9,5,26.5,6.1,39.1v.2Z"/>
        <path id="Path_75" data-name="Path 75" d="M1308.7,907.4c-.1-.3-5.9-27.1-11.4-44.9v-.2l.1-.1c.1-.1,14.6-8.3,29.2-10.2a35.628,35.628,0,0,1,5.5-.4c13.9,0,17.3,8.3,17.4,8.4.1.2,5.4,21.1-40.4,47.5l-.2.1Z"/>
        <path id="Path_76" data-name="Path 76" d="M1250.6,443.9h0c.2-.2,2.8-2.8,17.8-13.9,6.6-4.9,12.9-7.4,18.6-7.4,6.6,0,10.1,3.4,10.2,3.5s4,8.1,1.8,19.5c-3.7,19-21.2,32.7-35.3,40.8l-.2.1Z"/>
        <path id="Path_77" data-name="Path 77" d="M1156.2,1005v-.2c0-.1-.8-13.1,14.8-29.7,13.7-14.6,26.9-33.5,20.6-63.8v-.1l104.6-53.3.1.2c5.8,17.5,12.7,48.9,12.8,49.2,0,.1,2.1,10.6,4.5,25.8v.2h-.2c-15.3,3.7-52.7,18.1-70.3,71.5v.1l-86.9.1Z" fill="#f9494b"/>
        <path id="Path_78" data-name="Path 78" d="M1313.6,933.1h0l-.2-.1c-18.6,4.5-34.7,14.7-47.8,30.3l-.1.1,13.8,41.6v-.1h39.6v-.2C1318.9,986.5,1316.8,953.3,1313.6,933.1Z"/>
        <path id="Path_79" data-name="Path 79" d="M1197.2,911.9a41.1,41.1,0,0,1-5.5-.3h-.1v-.1c-2.5-12.3-11.1-33.2-22-59.5-13.9-33.8-31.3-75.9-41.9-115.6-9.7-36.1-14.2-92-16.4-132.5-2.3-43.9-2.3-79.7-2.3-80.1v-.2l141.1,11.8v.2c-.2,20.5-.8,38.8-1.5,56.6-2.5,70.8-4.1,117.6,29,161.7,11.8,15.7,21.9,28.4,30.8,39.5,22.1,27.6,36.1,48.9,41.1,66.7.1.2-10-18.6-52.2,2.7a340.549,340.549,0,0,0-31.4,19.8c-10,6.9-19.4,13.4-32.7,20C1217.2,910.7,1203.8,911.9,1197.2,911.9Z" fill="#f696bb"/>
        <g id="Group_57" data-name="Group 57">
          <path id="Path_80" data-name="Path 80" d="M1216.4,939.9h-24.1a2,2,0,0,1,0-4h24.1a2,2,0,0,1,0,4Z"/>
        </g>
        <g id="Group_58" data-name="Group 58">
          <path id="Path_81" data-name="Path 81" d="M1208.5,966.5a1.884,1.884,0,0,1-.8-.2l-21.9-10.1a2.036,2.036,0,0,1,1.7-3.7l21.9,10.1a2.138,2.138,0,0,1,1,2.7A2.057,2.057,0,0,1,1208.5,966.5Z"/>
        </g>
        <g id="Group_59" data-name="Group 59">
          <path id="Path_82" data-name="Path 82" d="M1239.1,901.4a1.927,1.927,0,0,1-1.9-1.5l-12.9-53a2.515,2.515,0,0,1,.2-1.5,1.762,1.762,0,0,1,1.3-.9L1283,832l-57.3-13.1a1.891,1.891,0,0,1-1.4-1.2,1.914,1.914,0,0,1,.2-1.8l27.4-43.7L1201.6,800a2.239,2.239,0,0,1-1.8.1,1.63,1.63,0,0,1-1.1-1.3l-16.1-63.5-9.5,76.1a1.945,1.945,0,0,1-.9,1.4,2.492,2.492,0,0,1-1.7.3l-20.6-5.9a2.026,2.026,0,0,1,1.1-3.9l18.4,5.3,10.5-84.3a1.863,1.863,0,0,1,1.9-1.7,2.048,2.048,0,0,1,2.1,1.5l18.1,71.3,54.8-30.2a1.971,1.971,0,0,1,2.6,2.8l-30,47.8,63.3,14.5a2.043,2.043,0,0,1,1.6,2,1.934,1.934,0,0,1-1.6,1.9l-64,14,12.4,51a1.916,1.916,0,0,1-1.5,2.4A.55.55,0,0,0,1239.1,901.4Z"/>
        </g>
        <g id="Group_60" data-name="Group 60">
          <path id="Path_83" data-name="Path 83" d="M1226.1,907.6a2.36,2.36,0,0,1-1.6-.7l-27.8-34.6-11.4,15.4a2,2,0,0,1-3.2-2.4l12.9-17.5a1.943,1.943,0,0,1,1.6-.8,2.36,2.36,0,0,1,1.6.7l29.4,36.6a1.942,1.942,0,0,1-.3,2.8A1.456,1.456,0,0,1,1226.1,907.6Z"/>
        </g>
        <g id="Group_61" data-name="Group 61">
          <path id="Path_84" data-name="Path 84" d="M1129.3,743.5a2.106,2.106,0,0,1-1.3-.5,2.041,2.041,0,0,1-.3-2.8l39.5-47.6-47,6.1a1.966,1.966,0,0,1-.5-3.9l52.1-6.8a2.031,2.031,0,0,1,2,1,1.966,1.966,0,0,1-.2,2.2l-42.8,51.5A1.659,1.659,0,0,1,1129.3,743.5Z"/>
        </g>
        <g id="Group_62" data-name="Group 62">
          <path id="Path_85" data-name="Path 85" d="M1221.3,726.4h-.3a2.019,2.019,0,0,1-1.7-1.8l-5.8-67.2-71.1-3.8a2,2,0,0,1-.8-3.8l65.1-30.2L1182.5,599a1.985,1.985,0,0,1,2.6-3l26.6,22.6a1.985,1.985,0,0,1,.7,1.8,1.779,1.779,0,0,1-1.1,1.5L1150.7,650l64.8,3.5a2.033,2.033,0,0,1,1.9,1.8l5.2,60.8,23.5-55.6a2,2,0,0,1,3.7,1.5l-26.6,63A2.1,2.1,0,0,1,1221.3,726.4Z"/>
        </g>
        <path id="Path_86" data-name="Path 86" d="M896.4,835.8v-.2c0-.1-.7-15.1,26.6-35.6,27-20.3,28.5-46.1,26.5-68.7-1.1-12.6-4-28.2-6.1-39.1-.4-2.1-.8-4-1.1-5.6v-.1l57.7-61.8,72.1,113.4v.1c.1,8.5-.1,17.2-.5,25.9v.2h-.2c-13.7.8-29.2,7.1-42.3,17.2-16.7,12.9-29.5,31.6-36.9,54.2v.1Z" fill="#f9494b"/>
        <circle id="Ellipse_1" data-name="Ellipse 1" cx="38.6" cy="38.6" r="38.6" transform="translate(1197.7 226)"/>
        <circle id="Ellipse_2" data-name="Ellipse 2" cx="38.6" cy="38.6" r="38.6" transform="translate(1273.9 226)"/>
        <g id="Group_64" data-name="Group 64">
          <path id="Path_87" data-name="Path 87" d="M1199.1,313a19.2,19.2,0,1,1,19.2-19.2A19.2,19.2,0,0,1,1199.1,313Z" fill="#fff"/>
          <g id="Group_63" data-name="Group 63">
            <path id="Path_88" data-name="Path 88" d="M1199.1,276.6a17.2,17.2,0,1,1-17.2,17.2,17.2,17.2,0,0,1,17.2-17.2m0-4a21.2,21.2,0,1,0,21.2,21.2,21.211,21.211,0,0,0-21.2-21.2Z"/>
          </g>
        </g>
        <g id="Group_65" data-name="Group 65">
          <path id="Path_89" data-name="Path 89" d="M1201.8,299a2.016,2.016,0,0,1-1.1-.3l-12.6-8.3a2.025,2.025,0,0,1,2.2-3.4l12.6,8.3a2.053,2.053,0,0,1,.6,2.8A2.091,2.091,0,0,1,1201.8,299Z"/>
        </g>
        <g id="Group_67" data-name="Group 67">
          <path id="Path_90" data-name="Path 90" d="M1160.9,312.5c-15.7,0-29.6-17.1-33.8-41.5-5-29.1,2.2-54.4,16.7-59a38.647,38.647,0,0,1,11.3-1.7c18.4,0,33.5,12.9,37.7,16.9l.2.2c8.2,8.7,11.6,17,10.9,26.9-.7,11.2-6.6,24.5-18.4,42C1178.4,306.9,1169.9,312.5,1160.9,312.5Z" fill="#fff"/>
          <g id="Group_66" data-name="Group 66">
            <path id="Path_91" data-name="Path 91" d="M1155.1,212.3c17.7,0,32.3,12.5,36.3,16.3l.2.2c13.4,14.2,16.7,30.3-7.7,66.4-6.7,10-14.7,15.3-23,15.3-6.7,0-13.6-3.7-19.2-10.4-6.1-7.2-10.6-17.7-12.6-29.5-2.4-14.1-2-27.8,1.2-38.4,3-9.8,8-16.3,14.2-18.3a33.593,33.593,0,0,1,10.6-1.6m0-4a39.118,39.118,0,0,0-11.9,1.8c-15.4,4.8-23.4,30.6-18.1,61.2,4.5,26.1,19.6,43.2,35.8,43.2,9,0,18.3-5.2,26.3-17.1,24.4-36.1,23.1-54.7,7.2-71.5-.1,0-17.3-17.6-39.3-17.6Z"/>
          </g>
        </g>
        <path id="Path_92" data-name="Path 92" d="M1194.3,225.9c13.8,14.6,16.6,30.6,1.1,58.1-26.3-17.1-17.5-56.5-17.5-56.5-27.5,13.8-52.7,7.6-52.7,7.6,2.9-13.1,9.3-22.4,17.9-25C1170.5,201.6,1194.3,225.9,1194.3,225.9Z"/>
        <g id="Group_68" data-name="Group 68">
          <path id="Path_93" data-name="Path 93" d="M1144.1,271.7a1.921,1.921,0,0,1-1.2-.4,9.419,9.419,0,0,1-3.4-4.7c-.9-2.7-.4-7,2.3-16.3a2.026,2.026,0,0,1,3.9,1.1c-1.6,5.6-3.1,11.7-2.3,13.9a6.292,6.292,0,0,0,2,2.8,1.956,1.956,0,0,1,.4,2.8A2.465,2.465,0,0,1,1144.1,271.7Z"/>
        </g>
        <g id="Group_69" data-name="Group 69">
          <path id="Path_94" data-name="Path 94" d="M1156.9,260.4h-.3a2.021,2.021,0,0,1-1.7-2.3l.3-2.1a2.022,2.022,0,1,1,4,.6l-.3,2.1A2.034,2.034,0,0,1,1156.9,260.4Z"/>
        </g>
        <g id="Group_70" data-name="Group 70">
          <path id="Path_95" data-name="Path 95" d="M1134,251.4h-.3a1.97,1.97,0,0,1-1.7-2.3l.3-2.2a2.022,2.022,0,1,1,4,.6l-.3,2.2A2.034,2.034,0,0,1,1134,251.4Z"/>
        </g>
        <g id="Group_71" data-name="Group 71">
          <path id="Path_96" data-name="Path 96" d="M1150.4,283.9a4.953,4.953,0,0,1-1.7-.2h-.3a5.271,5.271,0,0,1-1.5-.5,2.012,2.012,0,1,1,1.8-3.6c.1.1.4.1.7.2h.1a5.131,5.131,0,0,0,6-4.1,2,2,0,0,1,3.9.9A9.094,9.094,0,0,1,1150.4,283.9Z"/>
        </g>
        <path id="Path_97" data-name="Path 97" d="M1269.8,513.7c-1.9-15.5-7.4-33-18.3-67.9-1.4-4.6-2.9-9.4-4.5-14.6l-.1-.2-118.2,39.4c-.6.1-65.4,5-110.2,12.8-24.8,4.4-40.8,10-53.5,18.9-13.8,9.6-23.7,23.3-32.2,44.2-9.5,23.4-18.2,69.7-26,110.6-2.6,13.9-7,33.4-8.1,43.6,10.6-16.4,38.7-14.4,44.1-13.7,25.2,4.9,43.9,16.6,60.3,27,8.4,5.3,16.5,10.4,24.3,13.7,22.8,9.7,35.5,11.1,41,11.1a22.1,22.1,0,0,0,3.5-.2h.2v-.2c-.7-80.8-21.4-136.8-23.1-141.2h142.6c28.3,0,50.3-8,63.7-23.1C1268.1,559.4,1273,539.2,1269.8,513.7Z" fill="#f696bb"/>
        <g id="Group_72" data-name="Group 72">
          <path id="Path_98" data-name="Path 98" d="M1096.3,497.6c-1.5,0-3.1-.1-4.8-.2-33.2-2.8-64.2-34.7-91.5-62.8l-.3-.3c-11.3-11.6-21.9-22.5-32.2-31-15-12.4-30.4-17.4-41.6-21l-.2-.1c-10.9-3.5-14.6-5-13.6-8.5.2-.8,2.3-2,8.8-2,7.3,0,17.3,1.9,20.6,2.5a6.374,6.374,0,0,1,.9.2h.3a2.007,2.007,0,0,0,1.9-1.4,1.977,1.977,0,0,0-1-2.4l-1-.5-.5-.2c-5.4-2.6-22-10.6-26.8-13.9-3.2-2.4-5-5.3-4.7-7.7a3.544,3.544,0,0,1,2.2-2.9,1.981,1.981,0,0,0,1.1-1.1,1.81,1.81,0,0,0-.1-1.6c-.4-.7-2.2-4.6-.9-7.2.5-.9,1.4-2.2,4.5-2.8a2.018,2.018,0,0,0,1.6-1.8c.2-2,1.2-6.6,7-6.6a18.085,18.085,0,0,1,3.6.5c12.5,2.9,32.4,11.9,32.6,12a2.353,2.353,0,0,0,.8.2,2.2,2.2,0,0,0,1.5-.6,1.953,1.953,0,0,0,.3-2.3c-2.1-4.1-2.7-7.6-1.5-9.5a3.373,3.373,0,0,1,2.9-1.5c6.5,2.1,83.5,55.5,120,81.2a2.144,2.144,0,0,0,1.2.4.749.749,0,0,0,.5-.1,2.071,2.071,0,0,0,1.3-1.1c.6-1.5,4.2-9.6,11.6-25.3l14.4-25.9,71.8,34.2-7,23.9c-14.4,37.2-33.3,61.4-33.7,61.9l-.2.2C1146.2,472.4,1126.5,497.6,1096.3,497.6Z" fill="#fff"/>
          <path id="Path_99" data-name="Path 99" d="M966,324.8c9,4,85.1,56.9,119.2,80.8a3.891,3.891,0,0,0,2.3.7,2.153,2.153,0,0,0,1.1-.2,3.978,3.978,0,0,0,2.6-2.3c.6-1.5,4.2-9.6,11.6-25.1l13.5-24.2,68.6,32.7-6.5,22.2c-14.2,36.8-32.8,60.6-33.4,61.3l-.2.2a69.417,69.417,0,0,1-13.8,12.7c-11.1,7.9-22.7,11.9-34.7,11.9-1.4,0-3-.1-4.6-.2-32.5-2.8-63.2-34.4-90.2-62.2l-.3-.3c-11.3-11.6-22-22.6-32.4-31.1-15.3-12.6-30.9-17.7-42.3-21.4h-.2c-4.7-1.5-8.8-2.8-11-4.2-1.2-.7-1.4-1.1-1.3-1.5.5-.3,2.3-.9,6.9-.9,7.1,0,17,1.9,20.2,2.5a6.374,6.374,0,0,1,.9.2c.2,0,.5.1.7.1a4.1,4.1,0,0,0,3.8-2.7,3.954,3.954,0,0,0-2-4.8l-1-.5h-.1l-.5-.2c-5.4-2.6-21.8-10.5-26.4-13.7-2.6-1.9-4-4.1-3.9-5.8a1.33,1.33,0,0,1,1-1.3,4.139,4.139,0,0,0,2.2-2.3,3.983,3.983,0,0,0-.2-3.2c-.9-1.7-1.5-4.2-.9-5.4.2-.3.6-1.3,3.1-1.8a3.938,3.938,0,0,0,3.2-3.6c.3-3.1,1.9-4.7,5-4.7a17.006,17.006,0,0,1,3.1.4c12.3,2.9,32,11.7,32.2,11.8a4.711,4.711,0,0,0,1.7.4,4.005,4.005,0,0,0,2.9-1.2,3.927,3.927,0,0,0,.6-4.6c-2.1-4-2.1-6.6-1.6-7.5a1.818,1.818,0,0,1,1.1-1m.5-4a5.423,5.423,0,0,0-4.8,2.5c-1.6,2.6-1.1,6.7,1.4,11.5-3.3-1.5-21.4-9.4-33-12.1a19.864,19.864,0,0,0-4-.5c-8.1,0-8.9,7.2-9,8.4-3,.6-4.9,1.9-5.9,3.9-1.7,3.5.4,8,.9,9a5.533,5.533,0,0,0-3.4,4.5c-.4,3.3,1.7,6.8,5.5,9.6,5,3.5,22.1,11.7,27.5,14.3l1,.5c-1.7-.3-13.4-2.7-21.8-2.7-6.5,0-10.1,1.2-10.7,3.5-1.6,5.7,4.7,7.7,15,11,11.1,3.6,26.3,8.5,41.1,20.7,10.3,8.5,21,19.5,32.3,31.1,27.6,28.4,58.9,60.5,92.8,63.4,1.6.1,3.3.2,4.9.2,31.3,0,51.5-26,51.7-26.3.2-.2,19.5-24.7,34.1-62.6l7.5-25.6-75.1-35.7L1099.2,377c-7.6,15.9-11.1,24-11.7,25.4-7.1-5-116.2-81.6-121-81.6Z"/>
        </g>
        <g id="Group_73" data-name="Group 73">
          <path id="Path_100" data-name="Path 100" d="M970.4,776.7a1.268,1.268,0,0,1-.6-.1l-23.3-7.4a1.992,1.992,0,1,1,1.2-3.8l23.3,7.4a1.985,1.985,0,0,1,1.3,2.5A2.007,2.007,0,0,1,970.4,776.7Z"/>
        </g>
        <g id="Group_74" data-name="Group 74">
          <path id="Path_101" data-name="Path 101" d="M956.6,802.2a1.746,1.746,0,0,1-1.2-.4l-18.3-14.4a1.991,1.991,0,1,1,2.5-3.1l18.3,14.4a1.942,1.942,0,0,1,.3,2.8A2.36,2.36,0,0,1,956.6,802.2Z"/>
        </g>
        <g id="Group_75" data-name="Group 75">
          <path id="Path_102" data-name="Path 102" d="M1009.6,719.7a1.936,1.936,0,0,1-1.7-1,1.969,1.969,0,0,1,.8-2.7l16.2-9-31.5-57.4a1.975,1.975,0,0,1,.4-2.4,2.149,2.149,0,0,1,2.4-.3l51.1,31.3,13.5-31.6a2,2,0,0,1,3.7,1.5l-14.4,33.7a2.163,2.163,0,0,1-1.2,1.1,2.016,2.016,0,0,1-1.7-.2l-46.7-28.6,28.9,52.5a1.969,1.969,0,0,1-.8,2.7l-17.9,10A1.861,1.861,0,0,1,1009.6,719.7Z"/>
        </g>
        <g id="Group_76" data-name="Group 76">
          <path id="Path_103" data-name="Path 103" d="M960.6,674.2a2.051,2.051,0,0,1-1.9-1.3L939,620.4l-27.7,21.4a2,2,0,0,1-2.4-3.2l29.8-23.1a2.043,2.043,0,0,1,3.1.9l17.4,46.1,3.4-61.3a1.65,1.65,0,0,1,.9-1.5,1.747,1.747,0,0,1,1.7-.3l51.9,16.2L978,578.2a2.175,2.175,0,0,1,0-3l42.7-39.3L959.3,555a1.838,1.838,0,0,1-1.6-.2,2.209,2.209,0,0,1-1-1.3l-8.9-36.4a2,2,0,1,1,3.9-.9l8.4,34.3,67.9-21.1a1.911,1.911,0,0,1,2.3.9,2,2,0,0,1-.4,2.5l-47.6,43.9,43.7,41.8a2.037,2.037,0,0,1-2,3.4L966.5,604l-3.8,68.2a2.238,2.238,0,0,1-1.7,1.9A.757.757,0,0,1,960.6,674.2Z"/>
        </g>
        <g id="Group_77" data-name="Group 77">
          <path id="Path_104" data-name="Path 104" d="M1090.4,571.9a1.689,1.689,0,0,1-1-.3,2.09,2.09,0,0,1-.9-2.3l15.1-52.8-66.5-6.7a2.123,2.123,0,0,1-1.8-1.7,1.891,1.891,0,0,1,1.2-2.1l34.6-15a1.97,1.97,0,0,1,1.6,3.6l-27.5,11.9,61.2,6.1a2.371,2.371,0,0,1,1.5.9,2.044,2.044,0,0,1,.3,1.7L1094.5,563l45.8-44.9a1.933,1.933,0,0,1,2.8,0l40.2,38.4-14-54.2a2.223,2.223,0,0,1,.3-1.6,1.945,1.945,0,0,1,1.4-.9l52.5-7.2-28.2-16.7a1.972,1.972,0,0,1,2-3.4l33.1,19.6a1.952,1.952,0,0,1,.9,2.1,2.021,2.021,0,0,1-1.7,1.6l-56,7.7,15.2,58.8a2.032,2.032,0,0,1-.9,2.2,1.973,1.973,0,0,1-2.4-.3l-43.9-42L1091.8,571A1.535,1.535,0,0,1,1090.4,571.9Z"/>
        </g>
        <g id="Group_78" data-name="Group 78">
          <path id="Path_105" data-name="Path 105" d="M1269.5,543.4a1.7,1.7,0,0,1-.7-.1l-37.4-14.8a2.255,2.255,0,0,1-1.3-1.8,2.057,2.057,0,0,1,1.2-1.9l37.4-16.7a1.985,1.985,0,0,1,2.6,1,1.9,1.9,0,0,1-1,2.6l-33.1,14.8,33,13.1a2.03,2.03,0,0,1,1.1,2.6A1.975,1.975,0,0,1,1269.5,543.4Z"/>
        </g>
        <g id="Group_79" data-name="Group 79">
          <path id="Path_106" data-name="Path 106" d="M1191.8,598.8h-80.7a2,2,0,0,1,0-4h80.7c23.7,0,42.5-5.5,55.7-16.3a1.991,1.991,0,1,1,2.5,3.1C1236.1,593,1216.5,598.8,1191.8,598.8Z"/>
        </g>
        <path id="Path_107" data-name="Path 107" d="M1250.7,444.3c-3.3,2.8-39.9,33.8-78.2,33.8a61.268,61.268,0,0,1-24.3-4.8l-.1-.1.2-.2c.2-.2,18.7-23.7,33.6-62.3l-82.7-33.5.1-.2c6.5-13.6,14.2-29.1,22.7-46.2,10.8-21.6,26.1-33.2,45.4-34.5a26.2,26.2,0,0,1,2.8-.1c27.3,0,49.5,27.8,73.1,57.2,31.1,38.9,53.9,72.5,54.1,72.8C1283.2,414,1250.7,444.3,1250.7,444.3Z" fill="#f9494b"/>
        <g id="Group_80" data-name="Group 80">
          <path id="Path_108" data-name="Path 108" d="M1048.7,598.8h-21.2a2,2,0,0,1,0-4h21.2a2,2,0,0,1,0,4Z"/>
        </g>
        <g id="Group_81" data-name="Group 81">
          <path id="Path_109" data-name="Path 109" d="M1179,414.5a1.2,1.2,0,0,1-.8-.2,2.03,2.03,0,0,1-1.1-2.6c.1-.2,6.9-16.8,12.8-33.4a1.961,1.961,0,1,1,3.7,1.3c-5.8,16.7-12.8,33.4-12.8,33.6A1.921,1.921,0,0,1,1179,414.5Z"/>
        </g>
        <g id="Group_82" data-name="Group 82">
          <path id="Path_110" data-name="Path 110" d="M967.4,354.5a2.92,2.92,0,0,1-.9-.2c-.2-.1-24.8-11.8-47-19.6a1.961,1.961,0,1,1,1.3-3.7c22.4,7.8,47.2,19.7,47.4,19.8a2,2,0,0,1,.9,2.7A1.824,1.824,0,0,1,967.4,354.5Z"/>
        </g>
        <g id="Group_83" data-name="Group 83">
          <path id="Path_111" data-name="Path 111" d="M961.5,366.3a2.92,2.92,0,0,1-.9-.2c-21-10.1-36.5-16.7-45.9-19.6a1.876,1.876,0,0,1-1.3-2.5,1.944,1.944,0,0,1,2.5-1.3c9.6,2.9,25.3,9.6,46.5,19.8a2,2,0,0,1-.9,3.8Z"/>
        </g>
        <g id="Group_84" data-name="Group 84">
          <path id="Path_112" data-name="Path 112" d="M983.2,348.6a2.92,2.92,0,0,1-.9-.2L962,338.8a2.036,2.036,0,0,1,1.7-3.7l20.3,9.6a2.138,2.138,0,0,1,1,2.7A1.922,1.922,0,0,1,983.2,348.6Z"/>
        </g>
      </g>
    </g>
  </g>
</svg>
