<svg xmlns="http://www.w3.org/2000/svg" xmlns:xlink="http://www.w3.org/1999/xlink" width="1123" height="697" viewBox="0 0 1123 697">
  <defs>
    <clipPath id="clip-family02">
      <rect width="1123" height="697"/>
    </clipPath>
  </defs>
  <g id="family02" clip-path="url(#clip-family02)">
    <g id="family2" transform="translate(-79.817 -141.51)">
      <g id="woman" transform="translate(609.172 285.792)">
        <path id="Path_113" data-name="Path 113" d="M1059.8,523.328l-.156-.078.078-.156s-1.949-3.04,1.014-14.111c1.247-5.067,2.885-12.942,5.847-17.229,5.457-7.64,12.786-6.861,15.2-6.861a11.594,11.594,0,0,1,2.651.468c.156.078.39.078.546.234,3.82,2.1,5.925,7.484,5.535,17.853-.468,12.084-5.3,29.547-9.121,37.265C1081.473,540.636,1066.583,526.525,1059.8,523.328Z" transform="translate(-824.995 -361.465)"/>
        <path id="Path_114" data-name="Path 114" d="M1038.84,388.964H927.2l95.5-57.847a31.117,31.117,0,0,1,46,17.775h0A31.109,31.109,0,0,1,1038.84,388.964Z" transform="translate(-795.927 -326.579)"/>
        <path id="Path_115" data-name="Path 115" d="M1134.826,677.678H1133.5c-31.5-.39-69.7-27.208-96.2-49.583a543.938,543.938,0,0,1-50.519-48.959l-.078-.078,53.871-47.4h.078c11.772,3.9,27.754,14.969,48.959,33.679,4.912,4.366,9.121,8.186,12.942,11.538,16.684,14.969,22.843,20.5,28.456,20.5a3.8,3.8,0,0,0,.936-.078c6.393-.7,24.246-19.724,39.994-36.564,11.85-12.63,23-24.636,28.768-28.378a10.742,10.742,0,0,1,5.691-1.559c14.5,0,36.486,24.168,36.719,24.4l38.98,49.349-17.853,28.612h-.078c-11.148,3.9-23.31,9.667-36.252,15.748C1199.455,662.476,1167.179,677.678,1134.826,677.678Z" transform="translate(-809.04 -371.588)" fill="#f696bb"/>
        <path id="Path_116" data-name="Path 116" d="M1062.407,835.861c-.078-1.559-.156-2.495-.156-2.495,0-.156-1.559-16.684-3.2-26.195-5.691,2.495-10.837,5.925-16.216,9.589-6.471,4.366-13.877,9.355-23.7,13.565a46.861,46.861,0,0,1-18.321,3.352,82.649,82.649,0,0,1-20.893-2.885h-.078v-.078c-.156-24.012-7.172-57.691-13.331-87.472-2.261-10.681-4.288-20.738-6-29.859-13.487-72.893-23.934-141.109-24.012-141.811v-.156l68.45-16.918v.234c0,.936-.312,94.411,43.268,157.715,36.174,52.624,55.04,84.12,56.132,93.787.078.156,1.092,4.21-3.508,9.9-7.64,9.511-24.948,16.138-38.123,19.958l-.156.078Z" transform="translate(-797.977 -376.811)" fill="#f696bb"/>
        <path id="Path_117" data-name="Path 117" d="M1097.052,905.394c-.078-1.559-.156-2.495-.156-2.495l-3.2-26.507.078-.078c8.81-4.132,17.385-6.315,25.337-6.315,12.708,0,19.646,5.457,19.724,5.535h0v.078c.078.156,1.091,4.21-3.508,9.9-7.64,9.511-24.948,16.138-38.123,19.958l-.156.078Z" transform="translate(-832.622 -446.344)"/>
        <g id="Group_85" data-name="Group 85" transform="translate(194.723 225.313)">
          <path id="Path_118" data-name="Path 118" d="M1027.62,635.477a1.54,1.54,0,0,1-1.091-.468l-17.463-16.762a1.545,1.545,0,1,1,2.1-2.261l17.463,16.762a1.58,1.58,0,0,1,.078,2.183A1.361,1.361,0,0,1,1027.62,635.477Z" transform="translate(-1008.587 -615.587)"/>
        </g>
        <path id="Path_119" data-name="Path 119" d="M1275.079,568.555c-9.589-10.837-13.487-19.958-14.735-25.8-1.325-6.393.156-10.213.156-10.213v-.078h.078a10.547,10.547,0,0,1,5.691-1.559c14.5,0,36.486,24.168,36.719,24.4l-4.288,14.189C1298.779,569.491,1299.169,572.219,1275.079,568.555Z" transform="translate(-869.228 -371.61)"/>
        <g id="Group_86" data-name="Group 86" transform="translate(491.029 124.018)">
          <path id="Path_120" data-name="Path 120" d="M1477.176,662.35a1.53,1.53,0,0,1-.858-2.807,27.879,27.879,0,0,0,6.627-38.9l-94.021-132.534a1.568,1.568,0,1,1,2.573-1.793l94.021,132.534a31.02,31.02,0,0,1-7.328,43.268A2.692,2.692,0,0,1,1477.176,662.35Z" transform="translate(-1388.657 -485.657)"/>
        </g>
        <g id="Group_87" data-name="Group 87" transform="translate(504.594 172.666)">
          <path id="Path_121" data-name="Path 121" d="M1407.572,565.944a1.53,1.53,0,0,1-.858-2.807l20.894-14.813a1.568,1.568,0,1,1,1.793,2.573l-20.894,14.813A2.076,2.076,0,0,1,1407.572,565.944Z" transform="translate(-1406.057 -548.057)"/>
        </g>
        <g id="Group_88" data-name="Group 88" transform="translate(540.3 222.951)">
          <path id="Path_122" data-name="Path 122" d="M1453.372,630.522a1.53,1.53,0,0,1-.858-2.807l20.894-14.891a1.568,1.568,0,1,1,1.793,2.573l-20.894,14.891A2.077,2.077,0,0,1,1453.372,630.522Z" transform="translate(-1451.857 -612.557)"/>
        </g>
        <g id="Group_89" data-name="Group 89" transform="translate(460.734 255.962)">
          <path id="Path_123" data-name="Path 123" d="M1369.134,758.588a19.564,19.564,0,0,1-19.334-19.8,16.356,16.356,0,0,1,.546-4.366l19.023-78.351a1.591,1.591,0,0,1,1.559-1.169,1.573,1.573,0,0,1,1.481,1.247l16.138,78.974a19.628,19.628,0,0,1-15.28,23.076A28.143,28.143,0,0,1,1369.134,758.588Zm1.559-94.956L1353.308,735.2a14.269,14.269,0,0,0-.39,3.664,16.372,16.372,0,0,0,16.216,16.606,14.625,14.625,0,0,0,3.508-.39,16.431,16.431,0,0,0,12.786-19.334Z" transform="translate(-1349.797 -654.9)"/>
        </g>
        <g id="Group_90" data-name="Group 90" transform="translate(480.522 255.952)">
          <path id="Path_124" data-name="Path 124" d="M1420.8,713.446a13.185,13.185,0,0,1-9.122-3.586,11.509,11.509,0,0,1-1.949-2.339l-34.3-50.207a1.631,1.631,0,0,1,.156-1.949,1.545,1.545,0,0,1,1.949-.234l50.675,33.679a13.515,13.515,0,0,1,3.742,18.633c-.468.624-.858,1.091-1.247,1.637a13.561,13.561,0,0,1-9.355,4.366Zm-38.279-51.3,29.781,43.58a.076.076,0,0,0,.078.078,10.345,10.345,0,0,0,16.06,1.169c.312-.39.7-.858,1.013-1.325a10.317,10.317,0,0,0-2.885-14.267Z" transform="translate(-1375.18 -654.888)"/>
        </g>
        <g id="Group_91" data-name="Group 91" transform="translate(433.617 255.98)">
          <path id="Path_125" data-name="Path 125" d="M1324.982,701.6a29.011,29.011,0,0,1-8.888-1.4,1.553,1.553,0,1,1,.935-2.963c3.742,1.169,10.993,2.573,17.7-1.169,5.535-3.118,9.511-9.121,11.772-17.931,5.068-19.88,15.982-23.076,16.45-23.154a1.559,1.559,0,0,1,1.949,1.091,1.449,1.449,0,0,1-1.092,1.871c-.156.078-9.667,3.041-14.267,20.971-2.495,9.667-6.939,16.372-13.253,19.88A23.288,23.288,0,0,1,1324.982,701.6Z" transform="translate(-1315.014 -654.923)"/>
        </g>
        <g id="Group_92" data-name="Group 92" transform="translate(101.96 521.263)">
          <path id="Path_126" data-name="Path 126" d="M1083.177,1027.788H920.628A31.11,31.11,0,0,1,889.6,996.759a1.559,1.559,0,1,1,3.118,0,27.982,27.982,0,0,0,27.91,27.91h162.549a1.559,1.559,0,0,1,0,3.119Z" transform="translate(-889.6 -995.2)"/>
        </g>
        <g id="Group_93" data-name="Group 93" transform="translate(234.337 525.083)">
          <path id="Path_127" data-name="Path 127" d="M1060.959,1028.868a1.564,1.564,0,0,1-1.559-1.559v-25.649a1.559,1.559,0,0,1,3.118,0v25.649A1.564,1.564,0,0,1,1060.959,1028.868Z" transform="translate(-1059.4 -1000.1)"/>
        </g>
        <g id="Group_94" data-name="Group 94" transform="translate(172.592 525.083)">
          <path id="Path_128" data-name="Path 128" d="M981.759,1028.868a1.564,1.564,0,0,1-1.559-1.559v-25.649a1.559,1.559,0,0,1,3.118,0v25.649A1.564,1.564,0,0,1,981.759,1028.868Z" transform="translate(-980.2 -1000.1)"/>
        </g>
        <path id="Path_129" data-name="Path 129" d="M941.5,976.175v-.156c0-11.616,7.172-18.009,15.436-25.337,7.25-6.393,15.436-13.721,20.582-25.961,2.261-5.379,3.352-12.864,3.352-22.765v-.234l.234.078a82.42,82.42,0,0,0,20.816,2.885,46.5,46.5,0,0,0,18.243-3.274c9.823-4.21,17.151-9.121,23.622-13.565,5.457-3.664,10.6-7.172,16.45-9.667l.156-.078v.234c1.559,9.511,3.2,26.273,3.2,26.429,0,.39,3.352,39.6-.312,71.334v.156L941.5,976.175Z" transform="translate(-799.079 -448.129)" fill="#f9494b"/>
        <path id="Path_130" data-name="Path 130" d="M1415.876,638.822c-7.406,0-15.67-1.793-25.181-3.82a269.306,269.306,0,0,0-33.6-5.691c-1.247-.078-2.495-.156-3.742-.156-6.861,0-14.891,1.637-24.558,4.99l-.156.078v-.156c-.078-.156-4.132-19.49-14.267-33.211-6.549-8.888-14.735-14.969-21.985-20.426-5.145-3.82-9.667-7.172-12.63-10.837l-.156-.156,27.988-13.331c38.279-16.216,55.352-21.205,55.508-21.205h.078L1432.325,635l-.156.078a33.928,33.928,0,0,1-16.294,3.742Z" transform="translate(-873.593 -372.491)" fill="#f9494b"/>
        <g id="Group_95" data-name="Group 95" transform="translate(92.64 408.171)">
          <path id="Path_131" data-name="Path 131" d="M961.808,925.575a2.275,2.275,0,0,1-.7-.156l-72.971-38.357a19.532,19.532,0,0,1-8.186-26.507,12.119,12.119,0,0,1,2.339-3.43,19.758,19.758,0,0,1,27.52-2.573,22.8,22.8,0,0,1,3.04,3.118l50.207,65.409a1.532,1.532,0,0,1-.078,1.949A1.4,1.4,0,0,1,961.808,925.575Zm-64.474-72.348a16.69,16.69,0,0,0-12.786,5.925,8.849,8.849,0,0,0-1.871,2.807,16.245,16.245,0,0,0-1.169,12.63,16.507,16.507,0,0,0,8.03,9.667l66.657,35.082-45.919-59.8a16.393,16.393,0,0,0-2.573-2.651A16.072,16.072,0,0,0,897.334,853.227Z" transform="translate(-877.646 -850.138)"/>
        </g>
        <g id="Group_96" data-name="Group 96" transform="translate(114.69 473.032)">
          <path id="Path_132" data-name="Path 132" d="M918.38,958.177a12.467,12.467,0,0,1-11.928-9.043,15.949,15.949,0,0,1-.468-2.183,12.435,12.435,0,0,1,11.226-13.565,13.254,13.254,0,0,1,3.118.078l48.024,7.874a1.66,1.66,0,0,1,1.325,1.481,1.447,1.447,0,0,1-1.091,1.559L921.81,957.709A13.434,13.434,0,0,1,918.38,958.177Zm.156-21.751a4.8,4.8,0,0,0-1.013.078,9.362,9.362,0,0,0-8.42,10.213c.078.39.156,1.013.312,1.715a9.3,9.3,0,0,0,11.46,6.393l40.072-11.382-41.163-6.783A2.97,2.97,0,0,0,918.536,936.426Z" transform="translate(-905.929 -933.334)"/>
        </g>
        <g id="Group_97" data-name="Group 97" transform="translate(152.838 415.47)">
          <path id="Path_133" data-name="Path 133" d="M976.876,926.313a1.468,1.468,0,0,1-.624-.156l-.078-.078c-11.772-5.457-27.91-12.864-18.477-37.5,7.016-18.321-.312-26.117-.624-26.429a1.544,1.544,0,0,1,2.183-2.183c.39.39,9.043,9.355,1.325,29.7-8.342,21.907,4.444,27.832,16.917,33.523l.078.078a1.667,1.667,0,0,1,.78,2.1A1.6,1.6,0,0,1,976.876,926.313Z" transform="translate(-954.861 -859.5)"/>
        </g>
        <g id="Group_98" data-name="Group 98" transform="translate(185.323 233.923)">
          <path id="Path_134" data-name="Path 134" d="M1081.406,821.2a1.6,1.6,0,0,1-1.481-1.013c-10.759-29.7-21.907-47.868-32.588-65.487-16.606-27.208-33.757-55.352-50.753-126.141a1.56,1.56,0,0,1,3.041-.7c16.918,70.321,33.913,98.231,50.441,125.283,10.837,17.7,21.985,36.018,32.9,66.033a1.622,1.622,0,0,1-.936,2.027Z" transform="translate(-996.53 -626.63)"/>
        </g>
        <g id="Group_99" data-name="Group 99" transform="translate(165.237 247.516)">
          <path id="Path_135" data-name="Path 135" d="M1026.846,851.469a1.642,1.642,0,0,1-1.559-1.247c-8.186-36.953-13.877-54.651-21.673-79.13-2.183-6.938-4.522-14.111-7.094-22.453-11.616-37.265-18.165-65.877-25.727-102.674a1.59,1.59,0,1,1,3.118-.624c7.484,36.72,14.033,65.175,25.649,102.363,2.573,8.342,4.912,15.514,7.094,22.453,7.874,24.558,13.565,42.333,21.751,79.442a1.587,1.587,0,0,1-1.169,1.871Z" transform="translate(-970.766 -644.066)"/>
        </g>
        <g id="Group_100" data-name="Group 100" transform="translate(222.192 185.034)">
          <path id="Path_136" data-name="Path 136" d="M1145.076,636.019c-16.138,0-36.486-16.918-64.162-39.838-10.837-8.966-23.154-19.178-36.486-29.469a1.559,1.559,0,1,1,1.871-2.495c13.409,10.291,25.727,20.5,36.642,29.547,28.378,23.544,48.8,40.54,64.006,39.058,17.7-1.715,31.34-11.148,56.21-28.222,9.355-6.393,19.958-13.721,32.822-21.985a1.579,1.579,0,1,1,1.715,2.651c-12.864,8.264-23.466,15.514-32.744,21.985-24.4,16.762-39.136,26.9-57.691,28.69A21.154,21.154,0,0,1,1145.076,636.019Z" transform="translate(-1043.822 -563.922)"/>
        </g>
        <g id="Group_101" data-name="Group 101" transform="translate(208.564 208.281)">
          <path id="Path_137" data-name="Path 137" d="M1146.992,668.941c-30.717,0-69.151-31.184-109.769-64.084-3.43-2.807-6.861-5.535-10.291-8.342a1.552,1.552,0,0,1,1.949-2.417c3.43,2.807,6.939,5.613,10.291,8.342,40.618,32.977,79.052,64.084,108.833,63.382,25.571-.624,67.2-22.063,94.723-36.33,7.328-3.742,13.643-7.016,18.4-9.277a1.587,1.587,0,0,1,1.325,2.885c-4.678,2.183-10.993,5.457-18.243,9.2-27.832,14.345-69.775,36.018-96.126,36.642Z" transform="translate(-1026.341 -593.741)"/>
        </g>
        <g id="Group_102" data-name="Group 102" transform="translate(460.862 239.95)">
          <path id="Path_138" data-name="Path 138" d="M1355.293,654.272a1.641,1.641,0,0,1-1.559-1.247l-3.742-16.762a1.56,1.56,0,0,1,3.041-.7l3.742,16.762a1.587,1.587,0,0,1-1.169,1.871A.469.469,0,0,1,1355.293,654.272Z" transform="translate(-1349.962 -634.362)"/>
        </g>
        <g id="Group_103" data-name="Group 103" transform="translate(480.538 238.265)">
          <path id="Path_139" data-name="Path 139" d="M1376.759,652.86h0a1.564,1.564,0,0,1-1.559-1.559l.312-17.541a1.564,1.564,0,0,1,1.559-1.559h0a1.564,1.564,0,0,1,1.559,1.559l-.312,17.541A1.564,1.564,0,0,1,1376.759,652.86Z" transform="translate(-1375.2 -632.2)"/>
        </g>
        <g id="Group_104" data-name="Group 104" transform="translate(496.849 242.726)">
          <path id="Path_140" data-name="Path 140" d="M1397.664,655.368a.989.989,0,0,1-.468-.078,1.613,1.613,0,0,1-1.014-1.949L1400.938,639a1.553,1.553,0,0,1,2.963.936l-4.756,14.345A1.565,1.565,0,0,1,1397.664,655.368Z" transform="translate(-1396.122 -637.922)"/>
        </g>
        <g id="Group_105" data-name="Group 105" transform="translate(173.063 480.648)">
          <path id="Path_141" data-name="Path 141" d="M998.42,953.392a1.834,1.834,0,0,1-.624-.156l-16.06-7.172a1.507,1.507,0,0,1-.78-2.027,1.484,1.484,0,0,1,2.027-.78l16.06,7.172a1.507,1.507,0,0,1,.78,2.027A1.427,1.427,0,0,1,998.42,953.392Z" transform="translate(-980.804 -943.104)"/>
        </g>
        <g id="Group_106" data-name="Group 106" transform="translate(179.195 468.147)">
          <path id="Path_142" data-name="Path 142" d="M1006.546,932.239h-.234l-16.294-2.1a1.533,1.533,0,1,1,.39-3.04l16.294,2.1a1.464,1.464,0,0,1,1.325,1.715A1.4,1.4,0,0,1,1006.546,932.239Z" transform="translate(-988.669 -927.069)"/>
        </g>
        <g id="Group_107" data-name="Group 107" transform="translate(166.081 492.299)">
          <path id="Path_143" data-name="Path 143" d="M984.44,971.108a1.482,1.482,0,0,1-1.013-.39l-11.07-9.979a1.545,1.545,0,1,1,2.1-2.261l11.07,9.979a1.507,1.507,0,0,1,.078,2.183A1.719,1.719,0,0,1,984.44,971.108Z" transform="translate(-971.848 -958.048)"/>
        </g>
        <g id="Group_108" data-name="Group 108" transform="translate(449.668 174.685)">
          <path id="Path_144" data-name="Path 144" d="M1380.35,578.988a48.238,48.238,0,0,1-16.294-2.885c-12.63-4.444-24.012-13.8-28.3-23.31a1.484,1.484,0,0,1,.78-2.027,1.547,1.547,0,0,1,2.027.78c3.9,8.81,14.579,17.463,26.429,21.6,8.186,2.885,20.582,4.911,33.056-1.559a1.569,1.569,0,0,1,1.4,2.807A40.886,40.886,0,0,1,1380.35,578.988Z" transform="translate(-1335.604 -550.647)"/>
        </g>
        <g id="Group_109" data-name="Group 109" transform="translate(223.165 489.455)">
          <path id="Path_145" data-name="Path 145" d="M1046.574,994.394h-.156a1.464,1.464,0,0,1-1.325-1.715c3.2-26.429,23.544-38.279,42.255-38.279a1.559,1.559,0,1,1,0,3.118c-17.385,0-36.174,10.992-39.136,35.472A1.663,1.663,0,0,1,1046.574,994.394Z" transform="translate(-1045.069 -954.4)"/>
        </g>
        <g id="Group_110" data-name="Group 110" transform="translate(0 218.619)">
          <path id="Path_146" data-name="Path 146" d="M796.23,702.407a11.193,11.193,0,0,1-4.678-1.4l-.858-.546-.858.546a7.674,7.674,0,0,1-3.976,1.4c-2.963,0-4.444-2.885-4.678-3.508l-.624-1.247-2.261.78a13.834,13.834,0,0,1-2.339.312c-5.457,0-6.159-5.847-6.237-7.64l-.078-2.027-1.949.624a6.3,6.3,0,0,1-1.715.234,3.819,3.819,0,0,1-3.118-1.4c-1.481-1.715-2.807-5.847-1.091-15.748,3.664-21.205,18.165-38.2,39.916-61.745l3.2-1.637,48.959,24.168-2.963,2.573-16.84,14.968-2.573,2.261c-5.457,4.756-9.745,8.5-12.006,10.992-12.084,12.942-14.189,20.66-17.073,31.418l-.078.39C801.064,700.3,799.037,702.407,796.23,702.407Z" transform="translate(-759.29 -607.529)" fill="#fff"/>
          <path id="Path_147" data-name="Path 147" d="M804.333,610.508l46.075,22.843-1.169,1.013h0l-16.762,14.969-2.573,2.261c-5.457,4.756-9.823,8.576-12.084,11.07-12.4,13.175-14.579,21.517-17.385,32.12l-.078.39c-1.325,5.145-3.742,5.145-4.444,5.145a8.846,8.846,0,0,1-3.82-1.169l-1.637-1.013-1.637,1.013a6.521,6.521,0,0,1-3.118,1.091c-2.027,0-3.2-2.339-3.274-2.573l-1.169-2.495-2.651.858-.858.312a8.842,8.842,0,0,1-1.949.234c-3.976,0-4.6-4.288-4.678-6.081l-.156-4.054-3.9,1.247a3.1,3.1,0,0,1-1.247.234,2.421,2.421,0,0,1-1.949-.858c-2.417-2.885-1.325-11.07-.78-14.5,3.586-20.738,17.853-37.5,39.37-60.732l1.871-1.325m0-3.508-4.132,2.1c-22.063,23.778-36.8,41.007-40.54,62.681-1.481,8.42-1.013,14.189,1.4,17.073a5.372,5.372,0,0,0,4.366,1.949,10.292,10.292,0,0,0,2.261-.312c.078,1.4.78,9.121,7.8,9.121a12.362,12.362,0,0,0,2.807-.312l1.013-.312c.39.78,2.261,4.366,6.159,4.366a9.173,9.173,0,0,0,4.834-1.637,10.883,10.883,0,0,0,5.457,1.715c2.495,0,5.847-1.325,7.484-7.406l.078-.39c2.807-10.525,4.834-18.165,16.684-30.795,2.261-2.339,6.471-6.081,11.928-10.837l2.573-2.261,16.762-14.969,4.756-4.132L804.333,607Z" transform="translate(-758.817 -607)"/>
        </g>
        <path id="Path_148" data-name="Path 148" d="M872.142,619.389c-9.2,0-20.893-5.068-26.195-8.654l-.156-.078,16.762-14.891c-1.013-.468-6.237-2.729-26.195-10.291-16.684-6.315-24.4-16.918-24.48-17l-.078-.078.078-.078c2.261-2.417,4.6-4.912,7.016-7.562,2.261-2.417,4.6-4.911,7.016-7.562,29.079-31.418,49.973-82.794,57.145-117.253v-.078L906.912,420.9,927.1,434.621v.078c.078.468,4.21,44.516-8.81,91.37-7.952,28.69-33.991,89.343-39.37,92.228a19.96,19.96,0,0,1-6.783,1.091Z" transform="translate(-770.494 -347.367)" fill="#f9494b"/>
        <path id="Path_149" data-name="Path 149" d="M881.751,668.822c-9.2,0-20.893-5.068-26.195-8.654l-.156-.078L872.162,645.2s11.616,4.834,15.592,11.226.858,11.148.858,11.226v.078h-.078a19.96,19.96,0,0,1-6.783,1.091Z" transform="translate(-780.103 -396.8)"/>
        <path id="Path_150" data-name="Path 150" d="M945.891,606.129c-6.237-36.953-10.213-63.226-10.291-63.538l9.667-118.89.234.234c.234.234,28.222,25.883,112.108,48.024h0s-11.148-3.586-16.839,13.487c-4.6,13.565-7.8,23.934-7.8,23.934-12.786,39.76-35.784,64.318-52.779,77.493-18.4,14.345-33.913,19.334-34.069,19.334l-.156.078Z" transform="translate(-797.778 -347.984)" fill="#f9494b"/>
        <g id="Group_111" data-name="Group 111" transform="translate(131.429 55.836)">
          <path id="Path_151" data-name="Path 151" d="M943.121,427.742a13.721,13.721,0,1,1,13.721-13.721A13.741,13.741,0,0,1,943.121,427.742Z" transform="translate(-927.841 -398.663)" fill="#fff"/>
          <path id="Path_152" data-name="Path 152" d="M942.68,401.318a12.162,12.162,0,1,1-12.162,12.162,12.178,12.178,0,0,1,12.162-12.162m0-3.118a15.28,15.28,0,1,0,15.28,15.28,15.305,15.305,0,0,0-15.28-15.28Z" transform="translate(-927.4 -398.2)"/>
        </g>
        <g id="Group_112" data-name="Group 112" transform="translate(84.313 21.066)">
          <path id="Path_153" data-name="Path 153" d="M899.461,429.351c-10.681,0-21.361-10.6-26.663-26.507-6.861-20.5-4.444-39.6,5.535-44.438a28.133,28.133,0,0,1,12.474-2.807c13.253,0,24.558,8.42,24.714,8.5,6.861,5.379,10.291,10.992,10.915,18.321.7,8.186-2.027,18.477-8.654,32.432C913.338,424.206,906.867,429.351,899.461,429.351Z" transform="translate(-867.392 -354.041)" fill="#fff"/>
          <path id="Path_154" data-name="Path 154" d="M890.458,353.6v3.118h0c12.474,0,23.232,7.8,23.7,8.108,11.226,8.81,15.436,20.036,1.793,48.8-4.21,8.81-10.213,13.721-16.917,13.721-9.979,0-20.114-10.213-25.181-25.415-6.471-19.412-4.366-38.123,4.756-42.567a26.315,26.315,0,0,1,11.772-2.651l.078-3.118m0,0a30.446,30.446,0,0,0-13.175,2.962c-10.6,5.145-13.565,24.714-6.393,46.387,5.691,17.073,17.151,27.52,28.144,27.52,7.406,0,14.657-4.756,19.724-15.514,13.721-28.846,10.681-42.177-2.729-52.624.078.078-11.616-8.732-25.571-8.732Z" transform="translate(-866.965 -353.6)"/>
        </g>
        <g id="Group_113" data-name="Group 113" transform="translate(97.464 52.07)">
          <path id="Path_155" data-name="Path 155" d="M888.329,410.077a2.276,2.276,0,0,1-.7-.156,8.13,8.13,0,0,1-3.041-3.04c-.936-2.027-1.013-5.3-.156-12.162a1.533,1.533,0,0,1,3.041.39c-.468,3.976-.936,8.732-.156,10.369a4.53,4.53,0,0,0,1.715,1.715,1.535,1.535,0,0,1,.624,2.1A1.509,1.509,0,0,1,888.329,410.077Z" transform="translate(-883.834 -393.369)"/>
        </g>
        <g id="Group_114" data-name="Group 114" transform="translate(108.352 54.433)">
          <path id="Path_156" data-name="Path 156" d="M899.359,401.156A1.564,1.564,0,0,1,897.8,399.6v-1.637a1.559,1.559,0,0,1,3.119,0V399.6A1.564,1.564,0,0,1,899.359,401.156Z" transform="translate(-897.8 -396.4)"/>
        </g>
        <g id="Group_115" data-name="Group 115" transform="translate(90.733 50.457)">
          <path id="Path_157" data-name="Path 157" d="M876.759,395.978a1.564,1.564,0,0,1-1.559-1.559v-1.559a1.559,1.559,0,0,1,3.119,0v1.559A1.564,1.564,0,0,1,876.759,395.978Z" transform="translate(-875.2 -391.3)"/>
        </g>
        <g id="Group_116" data-name="Group 116" transform="translate(104.425 68.778)">
          <path id="Path_158" data-name="Path 158" d="M895.52,422.908h-.312a2.969,2.969,0,0,1-1.247-.234,1.56,1.56,0,1,1,.7-3.04,1.937,1.937,0,0,0,.624.078,3.6,3.6,0,0,0,3.82-3.43,1.561,1.561,0,1,1,3.118.156A6.814,6.814,0,0,1,895.52,422.908Z" transform="translate(-892.762 -414.8)"/>
        </g>
        <g id="Group_117" data-name="Group 117" transform="translate(30.583 272.382)">
          <path id="Path_159" data-name="Path 159" d="M799.647,716.687a1.5,1.5,0,0,1-1.559-1.481c-.78-18.633,9.355-37.655,9.745-38.435a1.552,1.552,0,0,1,2.729,1.481c-.078.156-10.135,19.1-9.433,36.875a1.449,1.449,0,0,1-1.481,1.559Z" transform="translate(-798.045 -675.962)"/>
        </g>
        <g id="Group_118" data-name="Group 118" transform="translate(18.48 266.009)">
          <path id="Path_160" data-name="Path 160" d="M784.22,712.469a1.6,1.6,0,0,1-1.559-1.4c-1.637-20.348,11.694-41.709,12.24-42.567a1.579,1.579,0,1,1,2.651,1.715c-.156.234-13.331,21.439-11.772,40.7a1.573,1.573,0,0,1-1.4,1.715C784.3,712.469,784.3,712.469,784.22,712.469Z" transform="translate(-782.521 -667.788)"/>
        </g>
        <g id="Group_119" data-name="Group 119" transform="translate(9.03 260.338)">
          <path id="Path_161" data-name="Path 161" d="M771.959,702.914h-.078a1.619,1.619,0,0,1-1.481-1.637c1.637-24.168,11.85-39.448,12.24-40.072A1.568,1.568,0,1,1,785.213,663c-.078.156-10.135,15.28-11.772,38.513A1.466,1.466,0,0,1,771.959,702.914Z" transform="translate(-770.4 -660.513)"/>
        </g>
        <g id="Group_120" data-name="Group 120" transform="translate(140.412 68.873)">
          <path id="Path_162" data-name="Path 162" d="M947.715,420.44a.988.988,0,0,1-.468-.078L940,417.945a1.553,1.553,0,1,1,.936-2.963l7.25,2.417a1.613,1.613,0,0,1,1.013,1.949A1.565,1.565,0,0,1,947.715,420.44Z" transform="translate(-938.923 -414.922)"/>
        </g>
        <path id="Path_163" data-name="Path 163" d="M869,371.951c19.256,8.03,40.072-4.834,40.072-4.834-2.417,12.786-2.417,30.4,12.006,43.268,0,0,5.457-10.135,6.393-26.429S910.4,358,899.4,355.891,873.834,352.773,869,371.951Z" transform="translate(-783.1 -332.799)"/>
        <g id="Group_121" data-name="Group 121" transform="translate(137.724 139.014)">
          <path id="Path_164" data-name="Path 164" d="M937.054,570.775a1.327,1.327,0,0,1-.546-.078,1.591,1.591,0,0,1-.936-2.027c3.82-10.369,6.549-18.477,8.186-24.636a247.869,247.869,0,0,0,7.328-37.733,1.567,1.567,0,0,1,3.118.312,254.287,254.287,0,0,1-7.484,38.2c-1.715,6.315-4.444,14.423-8.342,24.948A1.277,1.277,0,0,1,937.054,570.775Z" transform="translate(-935.475 -504.892)"/>
        </g>
        <g id="Group_122" data-name="Group 122" transform="translate(111.55 168.067)">
          <path id="Path_165" data-name="Path 165" d="M921.079,600.817a1.834,1.834,0,0,1-.624-.156,30.47,30.47,0,0,1-3.2-54.495,29.9,29.9,0,0,1,23.076-2.885,1.58,1.58,0,0,1-.858,3.041A27.134,27.134,0,0,0,918.74,548.9a26.77,26.77,0,0,0-12.786,16.528A27.442,27.442,0,0,0,921.7,597.777a1.582,1.582,0,0,1,.858,2.027A1.682,1.682,0,0,1,921.079,600.817Z" transform="translate(-901.901 -542.158)"/>
        </g>
      </g>
      <g id="heart" transform="translate(608.45 141.51)">
        <path id="Path_166" data-name="Path 166" d="M792.279,158.654c-6-27.6-45.061-20.582-31.574,11.772,12.474,25.961,28.3,55.742,31.34,61.511a2.587,2.587,0,0,0,.234.468l.234-.468c3.04-5.691,18.866-35.472,31.34-61.511C837.34,138.072,798.282,131.055,792.279,158.654Z" transform="translate(-757.891 -141.51)" fill="#f696bb"/>
        <path id="Path_167" data-name="Path 167" d="M796.054,291.843c-3.664-16.84-27.52-12.552-19.334,7.172,7.562,15.9,17.307,34.069,19.1,37.577.078.078.078.234.156.312.078-.078.078-.156.156-.312,1.871-3.508,11.538-21.673,19.1-37.577C823.574,279.292,799.718,275,796.054,291.843Z" transform="translate(-761.666 -172.337)" fill="#f9494b"/>
      </g>
      <g id="man" transform="translate(79.817 286.042)">
        <g id="Group_123" data-name="Group 123" transform="translate(207.986 73.829)">
          <path id="Path_168" data-name="Path 168" d="M363.751,439.531a1.482,1.482,0,0,1-1.013-.39c-9.121-8.342-15.592-14.813-15.67-14.891a1.544,1.544,0,1,1,2.183-2.183c.078.078,6.471,6.471,15.514,14.735a1.507,1.507,0,0,1,.078,2.183A1.264,1.264,0,0,1,363.751,439.531Z" transform="translate(-346.6 -421.6)"/>
        </g>
        <g id="Group_124" data-name="Group 124" transform="translate(216.718 59.406)">
          <path id="Path_169" data-name="Path 169" d="M375.029,421.031a1.863,1.863,0,0,1-1.091-.39c-9.121-8.342-15.592-14.813-15.67-14.891a1.544,1.544,0,1,1,2.183-2.183c.078.078,6.471,6.471,15.514,14.735a1.507,1.507,0,0,1,.078,2.183A1.058,1.058,0,0,1,375.029,421.031Z" transform="translate(-357.8 -403.1)"/>
        </g>
        <g id="Group_125" data-name="Group 125" transform="translate(231.998 28.144)">
          <path id="Path_170" data-name="Path 170" d="M394.551,380.931a1.482,1.482,0,0,1-1.013-.39c-9.121-8.342-15.592-14.813-15.67-14.891a1.544,1.544,0,1,1,2.183-2.183c.078.078,6.471,6.471,15.514,14.735a1.507,1.507,0,0,1,.078,2.183A1.264,1.264,0,0,1,394.551,380.931Z" transform="translate(-377.4 -363)"/>
        </g>
        <g id="Group_126" data-name="Group 126" transform="translate(224.358 43.814)">
          <path id="Path_171" data-name="Path 171" d="M384.751,401.031a1.482,1.482,0,0,1-1.013-.39c-9.121-8.342-15.592-14.813-15.67-14.891a1.544,1.544,0,1,1,2.183-2.183c.078.078,6.471,6.471,15.514,14.735a1.507,1.507,0,0,1,.078,2.183A1.264,1.264,0,0,1,384.751,401.031Z" transform="translate(-367.6 -383.1)"/>
        </g>
        <g id="Group_127" data-name="Group 127" transform="translate(240.028 15.358)">
          <path id="Path_172" data-name="Path 172" d="M404.462,364.921a1.539,1.539,0,0,1-1.091-.468l-15.2-15.2a1.544,1.544,0,1,1,2.183-2.183l15.2,15.2a1.507,1.507,0,0,1,0,2.183A1.539,1.539,0,0,1,404.462,364.921Z" transform="translate(-387.7 -346.6)"/>
        </g>
        <path id="Path_173" data-name="Path 173" d="M615.465,394.762c-39.526-28.846-77.727-30.4-111.328-16.84-37.655,15.2-66.968,27.208-105.715-14.423L365.6,425.167s35.238,36.018,73.673,38.435c53.715,3.352,78.507-42.489,128.947-25.649Z" transform="translate(-142.801 -334.966)" fill="#98d8f4"/>
        <g id="Group_128" data-name="Group 128" transform="translate(243.429 45.968)">
          <path id="Path_174" data-name="Path 174" d="M393.573,450.6a2.277,2.277,0,0,1-.7-.156,1.535,1.535,0,0,1-.624-2.1l32.822-61.667a1.552,1.552,0,1,1,2.729,1.481L394.976,449.82A1.742,1.742,0,0,1,393.573,450.6Z" transform="translate(-392.063 -385.862)"/>
        </g>
        <g id="Group_129" data-name="Group 129" transform="translate(220.587 26.322)">
          <path id="Path_175" data-name="Path 175" d="M364.273,425.4a2.276,2.276,0,0,1-.7-.156,1.535,1.535,0,0,1-.624-2.1l32.822-61.667a1.552,1.552,0,1,1,2.729,1.481L365.676,424.62A1.742,1.742,0,0,1,364.273,425.4Z" transform="translate(-362.763 -360.662)"/>
        </g>
        <path id="Path_176" data-name="Path 176" d="M448.5,806.036c1.091-9.589,19.958-41.163,56.132-93.787,43.5-63.3,43.268-156.779,43.268-157.715V554.3l68.45,16.918v.156c-.078.7-10.6,68.917-24.012,141.811-1.715,9.121-3.82,19.178-6,29.859-6.159,29.7-13.253,63.46-13.331,87.472v.078h-.078a82.649,82.649,0,0,1-20.894,2.885,45.488,45.488,0,0,1-18.321-3.352c-9.823-4.21-17.151-9.2-23.7-13.565-5.379-3.664-10.447-7.094-16.216-9.589C493.639,807.127,448.5,806.192,448.5,806.036Z" transform="translate(-161.072 -377.017)" fill="#98d8f4"/>
        <path id="Path_177" data-name="Path 177" d="M490,905.572c-13.175-3.82-30.483-10.447-38.123-19.958-4.6-5.769-3.508-9.745-3.508-9.9v-.078h0c.078-.078,7.016-5.535,19.724-5.535,7.952,0,16.528,2.1,25.337,6.315l.078.078-3.2,26.585s-.078.858-.156,2.417v.156Z" transform="translate(-161.018 -446.616)"/>
        <g id="Group_130" data-name="Group 130" transform="translate(296.472 521.013)">
          <path id="Path_178" data-name="Path 178" d="M624.208,1027.788H461.659a1.559,1.559,0,0,1,0-3.119H624.208a27.982,27.982,0,0,0,27.91-27.91,1.559,1.559,0,1,1,3.118,0A31.11,31.11,0,0,1,624.208,1027.788Z" transform="translate(-460.1 -995.2)"/>
        </g>
        <g id="Group_131" data-name="Group 131" transform="translate(356.112 524.833)">
          <path id="Path_179" data-name="Path 179" d="M538.159,1028.868a1.564,1.564,0,0,1-1.559-1.559v-25.649a1.559,1.559,0,0,1,3.118,0v25.649A1.564,1.564,0,0,1,538.159,1028.868Z" transform="translate(-536.6 -1000.1)"/>
        </g>
        <g id="Group_132" data-name="Group 132" transform="translate(417.857 524.833)">
          <path id="Path_180" data-name="Path 180" d="M617.359,1028.868a1.564,1.564,0,0,1-1.559-1.559v-25.649a1.559,1.559,0,0,1,3.118,0v25.649A1.564,1.564,0,0,1,617.359,1028.868Z" transform="translate(-615.8 -1000.1)"/>
        </g>
        <path id="Path_181" data-name="Path 181" d="M501.816,976.153V976c-3.664-31.73-.312-70.944-.312-71.334,0-.156,1.637-16.918,3.2-26.429V878l.156.078c5.847,2.573,10.992,6,16.45,9.667,6.471,4.366,13.877,9.355,23.622,13.565a46.5,46.5,0,0,0,18.243,3.274,83.209,83.209,0,0,0,20.816-2.885l.234-.078v.234c-.078,9.745,1.091,17.463,3.352,22.765,5.223,12.318,13.409,19.568,20.582,25.961,8.264,7.328,15.436,13.721,15.436,25.337v.156l-121.775.078Z" transform="translate(-172.444 -448.357)" fill="#6c79d9"/>
        <g id="Group_133" data-name="Group 133" transform="translate(416.17 408.389)">
          <path id="Path_182" data-name="Path 182" d="M615.167,926.174a1.4,1.4,0,0,1-1.169-.546,1.641,1.641,0,0,1-.078-1.949L664.2,858.271a22.8,22.8,0,0,1,3.04-3.118,19.846,19.846,0,0,1,27.6,2.573,16.529,16.529,0,0,1,2.339,3.43A19.47,19.47,0,0,1,689,887.584l-73.049,38.357A1.743,1.743,0,0,1,615.167,926.174Zm64.552-72.348a16.516,16.516,0,0,0-10.447,3.742,20.505,20.505,0,0,0-2.573,2.651l-45.919,59.8,66.735-35.082a16.433,16.433,0,0,0,6.939-22.3,12.568,12.568,0,0,0-1.871-2.807A16.786,16.786,0,0,0,679.719,853.827Z" transform="translate(-613.637 -850.738)"/>
        </g>
        <g id="Group_134" data-name="Group 134" transform="translate(416.133 473.172)">
          <path id="Path_183" data-name="Path 183" d="M664.818,958.677a12.422,12.422,0,0,1-3.352-.468l-46.777-13.331a1.5,1.5,0,0,1-1.091-1.559,1.651,1.651,0,0,1,1.325-1.481l48.024-7.874a13.4,13.4,0,0,1,3.118-.078,12.187,12.187,0,0,1,8.42,4.444,12.432,12.432,0,0,1,2.807,9.121,15.952,15.952,0,0,1-.468,2.183A12.63,12.63,0,0,1,664.818,958.677Zm-42.645-14.891,40.072,11.382a9.3,9.3,0,0,0,11.46-6.393,8.988,8.988,0,0,0,.312-1.715,9.428,9.428,0,0,0-2.1-6.783,9.088,9.088,0,0,0-6.315-3.352,7.565,7.565,0,0,0-2.339.078Z" transform="translate(-613.589 -933.834)"/>
        </g>
        <g id="Group_135" data-name="Group 135" transform="translate(418.094 415.61)">
          <path id="Path_184" data-name="Path 184" d="M617.66,926.813a1.427,1.427,0,0,1-1.4-.936,1.594,1.594,0,0,1,.78-2.1l.078-.078c12.4-5.691,25.259-11.616,16.918-33.523-7.718-20.348.936-29.313,1.325-29.7a1.544,1.544,0,1,1,2.183,2.183c-.312.312-7.562,8.108-.546,26.429,9.355,24.636-6.7,32.042-18.477,37.5l-.078.078A3.432,3.432,0,0,1,617.66,926.813Z" transform="translate(-616.104 -860)"/>
        </g>
        <path id="Path_185" data-name="Path 185" d="M386.671,677.921c-32.354,0-64.708-15.28-93.163-28.69-12.864-6.081-25.025-11.85-36.252-15.748l-.156-.078v-.156c.156-.7,3.586-17.931,13.721-31.73,6.627-8.966,15.046-15.67,22.531-21.517,5.145-4.054,9.589-7.562,12.552-11.148l-18.867-8.966L320.56,532.6l.078.078c5.769,3.742,17,15.67,28.846,28.3,15.748,16.762,33.6,35.862,39.994,36.564.312,0,.624.078.936.078,5.613,0,11.85-5.613,28.456-20.5,3.742-3.352,8.03-7.172,12.942-11.538C452.938,546.869,469,535.8,480.77,531.9h.078l53.871,47.4-.078.078a532.392,532.392,0,0,1-50.519,48.959c-48.024,40.618-78.818,49.349-96.2,49.583Z" transform="translate(-118.889 -372.08)" fill="#98d8f4"/>
        <path id="Path_186" data-name="Path 186" d="M225.5,596.6l46-41.4c.234-.234,22.219-24.4,36.72-24.4a10.547,10.547,0,0,1,5.691,1.559h.078v.078s1.013,3.9-.312,10.291c-1.169,5.847-4.6,15.124-14.189,25.883-26.039,14.5-37.967,31.262-43.424,42.723-5.847,12.474-5.535,21.6-5.535,21.673v.546Z" transform="translate(-111.925 -371.838)"/>
        <g id="Group_136" data-name="Group 136" transform="translate(350.954 328.955)">
          <path id="Path_187" data-name="Path 187" d="M569.99,851.329h-.312a1.573,1.573,0,0,1-1.247-1.4l-3.04-36.1-33.679,3.041a1.624,1.624,0,0,1-1.637-1.013,1.556,1.556,0,0,1,.546-1.793L554.944,797.3l-15.2-24.4a1.663,1.663,0,0,1,.078-1.793,1.6,1.6,0,0,1,1.715-.546l29.235,9.277,17-30.171a1.521,1.521,0,0,1,1.715-.78,1.482,1.482,0,0,1,1.169,1.4l1.559,29.157,13.331-4.912a1.579,1.579,0,1,1,1.091,2.963l-15.28,5.613a1.752,1.752,0,0,1-1.4-.156,1.476,1.476,0,0,1-.7-1.247l-1.325-25.883L572.875,782.49a1.526,1.526,0,0,1-1.793.7l-26.351-8.42,13.721,22.063a1.523,1.523,0,0,1-.468,2.1l-20.66,14.267,29.313-2.651a1.64,1.64,0,0,1,1.169.39,1.364,1.364,0,0,1,.546,1.091l2.729,32.12,15.124-30.249a1.627,1.627,0,0,1,1.247-.858,1.6,1.6,0,0,1,1.4.624l8.42,11.694a1.568,1.568,0,1,1-2.573,1.793l-6.939-9.589-16.45,32.9A1.441,1.441,0,0,1,569.99,851.329Z" transform="translate(-529.984 -748.849)"/>
        </g>
        <g id="Group_137" data-name="Group 137" transform="translate(356.407 261.703)">
          <path id="Path_188" data-name="Path 188" d="M556.33,736.971a1.627,1.627,0,0,1-1.247-.624l-17.775-24.012a1.559,1.559,0,1,1,2.495-1.871l15.2,20.5,1.481-29.235a1.515,1.515,0,0,1,1.325-1.481l26.273-3.43-24.558-13.253a1.612,1.612,0,0,1-.78-1.091,1.68,1.68,0,0,1,.39-1.325l13.8-14.813L555,668.989a1.577,1.577,0,1,1-.468-3.118l22.3-3.274a1.7,1.7,0,0,1,1.637.78,1.538,1.538,0,0,1-.234,1.793L562.8,681.775l27.052,14.579a1.465,1.465,0,0,1,.78,1.637,1.488,1.488,0,0,1-1.325,1.247l-29.781,3.9-1.637,32.276a1.5,1.5,0,0,1-1.091,1.4A.573.573,0,0,1,556.33,736.971Z" transform="translate(-536.979 -662.585)"/>
        </g>
        <g id="Group_138" data-name="Group 138" transform="translate(309.701 366.887)">
          <path id="Path_189" data-name="Path 189" d="M478.652,816.211a1.567,1.567,0,0,1-.234-3.118l29.079-4.21-19.412-8.42a1.536,1.536,0,1,1,1.247-2.807l24.48,10.6a1.627,1.627,0,0,1,.936,1.637,1.493,1.493,0,0,1-1.325,1.325l-34.537,4.99Z" transform="translate(-477.069 -797.504)"/>
        </g>
        <g id="Group_139" data-name="Group 139" transform="translate(346.361 412.165)">
          <path id="Path_190" data-name="Path 190" d="M543.822,895.044a1.6,1.6,0,0,1-1.559-1.4l-3.43-31.5-11.85,20.816a1.538,1.538,0,0,1-2.651-1.559L538.6,856.376a1.572,1.572,0,0,1,1.637-.78,1.672,1.672,0,0,1,1.247,1.325l3.976,36.252a1.573,1.573,0,0,1-1.4,1.715C543.9,895.044,543.9,895.044,543.822,895.044Z" transform="translate(-524.092 -855.581)"/>
        </g>
        <g id="Group_140" data-name="Group 140" transform="translate(222.643 202.224)">
          <path id="Path_191" data-name="Path 191" d="M435.175,662.466a1.628,1.628,0,0,1-1.247-.624l-22.3-29.937-28.378,20.66a1.643,1.643,0,0,1-1.871,0,1.591,1.591,0,0,1-.546-1.793l9.823-26.663-24.324-10.6a1.565,1.565,0,0,1-.936-1.559,1.6,1.6,0,0,1,1.091-1.4l20.5-6-1.247-16.606a1.525,1.525,0,1,1,3.04-.234l1.325,17.853a1.591,1.591,0,0,1-1.091,1.637l-17.541,5.145,21.751,9.511a1.563,1.563,0,0,1,.858,1.949l-8.576,23.232,25.493-18.555a1.6,1.6,0,0,1,2.183.312l19.724,26.429-4.132-33.367a1.613,1.613,0,0,1,1.247-1.715l23.232-4.756-23.7-13.643a1.538,1.538,0,1,1,1.559-2.651l27.286,15.67a1.636,1.636,0,0,1,.78,1.637,1.489,1.489,0,0,1-1.247,1.247l-25.883,5.3,4.678,37.811a1.566,1.566,0,0,1-.936,1.637A1.936,1.936,0,0,1,435.175,662.466Z" transform="translate(-365.4 -586.292)"/>
        </g>
        <g id="Group_141" data-name="Group 141" transform="translate(161.035 212.85)">
          <path id="Path_192" data-name="Path 192" d="M299.648,665.47a1.5,1.5,0,0,1-1.559-1.481l-.468-12.786a1.719,1.719,0,0,1,.468-1.169,1.539,1.539,0,0,1,1.091-.468H329.9l-25.415-16.372a1.552,1.552,0,0,1-.468-2.183l17.931-25.883-29.313,12.942a1.722,1.722,0,0,1-1.247,0,1.687,1.687,0,0,1-.858-.936l-4.054-12.006a1.553,1.553,0,1,1,2.963-.936l3.508,10.369,32.822-14.5a1.588,1.588,0,0,1,1.871.468,1.525,1.525,0,0,1,.078,1.871L307.6,631.479l28.534,18.4a1.518,1.518,0,0,1,.624,1.715,1.5,1.5,0,0,1-1.481,1.092H300.9l.39,11.148a1.7,1.7,0,0,1-1.637,1.637Z" transform="translate(-286.376 -599.921)"/>
        </g>
        <g id="Group_142" data-name="Group 142" transform="translate(236.011 272.037)">
          <path id="Path_193" data-name="Path 193" d="M404.106,710.58h-.234a1.521,1.521,0,0,1-1.247-1.793l4.366-26.351-21.751,24.09a1.545,1.545,0,0,1-2.261-2.1l25.337-28.066a1.681,1.681,0,0,1,1.871-.39,1.629,1.629,0,0,1,.858,1.637l-5.223,31.574A1.88,1.88,0,0,1,404.106,710.58Z" transform="translate(-382.548 -675.841)"/>
        </g>
        <g id="Group_143" data-name="Group 143" transform="translate(324.425 185.547)">
          <path id="Path_194" data-name="Path 194" d="M534.035,639.353a1.52,1.52,0,0,1-1.481-1.091l-3.664-12.006-29.157,11.382a1.591,1.591,0,0,1-1.793-.468,1.641,1.641,0,0,1-.078-1.871l20.66-31.028-21.673-9.979a1.57,1.57,0,0,1-.858-1.715,1.491,1.491,0,0,1,1.4-1.247l25.805-2.183-.7-22.609a1.561,1.561,0,1,1,3.118-.156l.78,24.09a1.615,1.615,0,0,1-1.4,1.637l-21.439,1.871,17.931,8.264a1.614,1.614,0,0,1,.858,1.013,1.362,1.362,0,0,1-.234,1.325L503.163,632.96l26.117-10.213a1.411,1.411,0,0,1,1.247.078,1.343,1.343,0,0,1,.78.936l4.132,13.643a1.577,1.577,0,0,1-1.014,1.949Z" transform="translate(-495.956 -564.9)"/>
        </g>
        <g id="Group_144" data-name="Group 144" transform="translate(0 123.69)">
          <path id="Path_195" data-name="Path 195" d="M93.837,662.328a1.5,1.5,0,0,1-.936-.312,31.02,31.02,0,0,1-7.328-43.268l94.021-132.534a1.568,1.568,0,0,1,2.573,1.793L88.146,620.541a27.879,27.879,0,0,0,6.627,38.9,1.6,1.6,0,0,1,.39,2.183A1.742,1.742,0,0,1,93.837,662.328Z" transform="translate(-79.817 -485.557)"/>
        </g>
        <g id="Group_145" data-name="Group 145" transform="translate(64.972 172.338)">
          <path id="Path_196" data-name="Path 196" d="M185.643,565.922a1.5,1.5,0,0,1-.936-.312L163.814,550.8a1.568,1.568,0,0,1,1.793-2.573L186.5,563.037a1.6,1.6,0,0,1,.39,2.183A1.5,1.5,0,0,1,185.643,565.922Z" transform="translate(-163.157 -547.957)"/>
        </g>
        <g id="Group_146" data-name="Group 146" transform="translate(29.266 222.623)">
          <path id="Path_197" data-name="Path 197" d="M139.843,630.5a1.5,1.5,0,0,1-.936-.312L118.014,615.3a1.568,1.568,0,0,1,1.793-2.573L140.7,627.615a1.6,1.6,0,0,1,.39,2.183A1.5,1.5,0,0,1,139.843,630.5Z" transform="translate(-117.357 -612.457)"/>
        </g>
        <path id="Path_198" data-name="Path 198" d="M502.8,551.546l.156-.078c13.175-10.369,23.7-16.762,32.12-19.568h.078l24.636,21.673c.078-2.495.078-3.82.078-3.9v-.234l68.45,16.918v.156c-.078.312-5.457,35.394-13.331,81.781l-.078.234Z" transform="translate(-173.039 -372.08)" fill="#6c79d9"/>
        <path id="Path_199" data-name="Path 199" d="M633.171,606.692a22.117,22.117,0,0,1-14.657-5.535l-84.666-74.063a22.26,22.26,0,0,1-2.1-31.418l.78-.936a22.191,22.191,0,0,1,31.418-2.1L648.607,566.7a22.235,22.235,0,0,1,2.1,31.418l-.78.936A22.321,22.321,0,0,1,633.171,606.692Z" transform="translate(-178.204 -362.207)" fill="#6c79d9"/>
        <path id="Path_200" data-name="Path 200" d="M665.566,562.014a22.117,22.117,0,0,1-14.657-5.535l-79.364-69.385a22.235,22.235,0,0,1-2.1-31.418l.78-.936a22.191,22.191,0,0,1,31.418-2.1L681,522.021a22.26,22.26,0,0,1,2.1,31.418l-.78.936A22.053,22.053,0,0,1,665.566,562.014Z" transform="translate(-186.51 -353.391)" fill="#6c79d9"/>
        <path id="Path_201" data-name="Path 201" d="M648.56,478.992a22.118,22.118,0,0,1-14.657-5.535l-19.958-17.463a22.235,22.235,0,0,1-2.1-31.418l.78-.936a22.191,22.191,0,0,1,31.418-2.1L664,439a22.235,22.235,0,0,1,2.1,31.418l-.78.936A22.2,22.2,0,0,1,648.56,478.992Z" transform="translate(-195.855 -346.537)" fill="#6c79d9"/>
        <g id="Group_147" data-name="Group 147" transform="translate(93.706 255.712)">
          <path id="Path_202" data-name="Path 202" d="M219.8,758.588a27.208,27.208,0,0,1-4.132-.39,19.628,19.628,0,0,1-15.28-23.076l16.138-78.974a1.574,1.574,0,0,1,1.481-1.247,1.591,1.591,0,0,1,1.559,1.169l19.022,78.351a21,21,0,0,1,.546,4.444A19.432,19.432,0,0,1,219.8,758.588Zm-1.559-94.956-14.735,72.114A16.392,16.392,0,0,0,216.3,755.08a20.084,20.084,0,0,0,3.508.39,16.37,16.37,0,0,0,16.216-16.528,19.646,19.646,0,0,0-.39-3.742Z" transform="translate(-200.013 -654.9)"/>
        </g>
        <g id="Group_148" data-name="Group 148" transform="translate(53.916 255.78)">
          <path id="Path_203" data-name="Path 203" d="M162.482,713.468h-.546a13.33,13.33,0,0,1-9.355-4.288c-.468-.546-.858-1.013-1.325-1.637a13.427,13.427,0,0,1,3.664-18.633l50.675-33.679a1.533,1.533,0,0,1,1.949.234,1.444,1.444,0,0,1,.156,1.949l-34.3,50.207a9.284,9.284,0,0,1-1.949,2.261A13.019,13.019,0,0,1,162.482,713.468Zm38.279-51.3L156.713,691.4a10.229,10.229,0,0,0-2.807,14.267A16.343,16.343,0,0,0,155,707a10.047,10.047,0,0,0,7.094,3.2,10.413,10.413,0,0,0,7.406-2.729,7.142,7.142,0,0,0,1.4-1.715.076.076,0,0,1,.078-.078Z" transform="translate(-148.975 -654.987)"/>
        </g>
        <g id="Group_149" data-name="Group 149" transform="translate(378.979 125.542)">
          <path id="Path_204" data-name="Path 204" d="M637.553,551.835a1.642,1.642,0,0,1-1.013-.39l-70.087-60.81a1.547,1.547,0,0,1,2.027-2.339l70.087,60.81a1.582,1.582,0,0,1,.156,2.183A1.4,1.4,0,0,1,637.553,551.835Z" transform="translate(-565.932 -487.932)"/>
        </g>
        <g id="Group_150" data-name="Group 150" transform="translate(409.462 95.059)">
          <path id="Path_205" data-name="Path 205" d="M629.8,472.117a1.642,1.642,0,0,1-1.013-.39l-23.232-20.192a1.547,1.547,0,0,1,2.027-2.339l23.232,20.192a1.582,1.582,0,0,1,.156,2.183A1.4,1.4,0,0,1,629.8,472.117Z" transform="translate(-605.032 -448.832)"/>
        </g>
        <g id="Group_151" data-name="Group 151" transform="translate(110.085 255.73)">
          <path id="Path_206" data-name="Path 206" d="M260.921,701.6a23.007,23.007,0,0,1-11.226-2.807c-6.315-3.508-10.759-10.213-13.253-19.88-2.417-9.433-6.159-14.657-8.888-17.307a13.9,13.9,0,0,0-5.379-3.586,1.559,1.559,0,0,1-1.091-1.949,1.512,1.512,0,0,1,1.871-1.091c.468.156,11.382,3.274,16.45,23.154,2.261,8.81,6.159,14.813,11.772,17.931,6.7,3.742,13.955,2.339,17.7,1.169a1.553,1.553,0,0,1,.936,2.963A29.009,29.009,0,0,1,260.921,701.6Z" transform="translate(-221.023 -654.923)"/>
        </g>
        <g id="Group_152" data-name="Group 152" transform="translate(352.629 160.624)">
          <path id="Path_207" data-name="Path 207" d="M627.3,617.183a1.642,1.642,0,0,1-1.013-.39l-93.631-81.157a1.547,1.547,0,0,1,2.027-2.339l93.631,81.157a1.582,1.582,0,0,1,.156,2.183A1.4,1.4,0,0,1,627.3,617.183Z" transform="translate(-532.132 -532.932)"/>
        </g>
        <g id="Group_153" data-name="Group 153" transform="translate(340.036 170.328)">
          <path id="Path_208" data-name="Path 208" d="M517.555,566.133a1.627,1.627,0,0,1-1.247-.624,1.525,1.525,0,0,1,.312-2.183l22.921-17.619a1.559,1.559,0,1,1,1.871,2.495L518.49,565.821A1.361,1.361,0,0,1,517.555,566.133Z" transform="translate(-515.979 -545.379)"/>
        </g>
        <g id="Group_154" data-name="Group 154" transform="translate(358.878 184.805)">
          <path id="Path_209" data-name="Path 209" d="M541.748,586.285a1.719,1.719,0,0,1-1.169-.468,1.507,1.507,0,0,1,.078-2.183l20.816-19.256a1.545,1.545,0,0,1,2.1,2.261L542.761,585.9A1.482,1.482,0,0,1,541.748,586.285Z" transform="translate(-540.148 -563.948)"/>
        </g>
        <g id="Group_155" data-name="Group 155" transform="translate(377.354 199.149)">
          <path id="Path_210" data-name="Path 210" d="M565.448,606.322a1.863,1.863,0,0,1-1.091-.39,1.507,1.507,0,0,1-.078-2.183l19.178-20.894a1.545,1.545,0,0,1,2.261,2.1l-19.178,20.816A1.264,1.264,0,0,1,565.448,606.322Z" transform="translate(-563.848 -582.348)"/>
        </g>
        <g id="Group_156" data-name="Group 156" transform="translate(397.789 212.957)">
          <path id="Path_211" data-name="Path 211" d="M591.572,627.845a1.316,1.316,0,0,1-.78-.234,1.7,1.7,0,0,1-.546-2.183l15.124-24.636a1.591,1.591,0,1,1,2.729,1.637l-15.124,24.636A1.653,1.653,0,0,1,591.572,627.845Z" transform="translate(-590.059 -600.059)"/>
        </g>
        <g id="Group_157" data-name="Group 157" transform="translate(415.732 224.82)">
          <path id="Path_212" data-name="Path 212" d="M614.654,646.791a1.327,1.327,0,0,1-.546-.078,1.591,1.591,0,0,1-.935-2.027l10.447-28.378a1.579,1.579,0,1,1,2.962,1.091l-10.447,28.378A1.6,1.6,0,0,1,614.654,646.791Z" transform="translate(-613.075 -615.275)"/>
        </g>
        <g id="Group_158" data-name="Group 158" transform="translate(431.785 236.039)">
          <path id="Path_213" data-name="Path 213" d="M635.252,664.073h-.312a1.6,1.6,0,0,1-1.247-1.871l6.471-31.262a1.59,1.59,0,0,1,3.118.624l-6.471,31.262A1.577,1.577,0,0,1,635.252,664.073Z" transform="translate(-633.666 -629.666)"/>
        </g>
        <g id="Group_159" data-name="Group 159" transform="translate(328.539 177.854)">
          <path id="Path_214" data-name="Path 214" d="M614.094,654.8a1.642,1.642,0,0,1-1.013-.39L501.753,557.736a1.547,1.547,0,1,1,2.027-2.339l111.328,96.672a1.582,1.582,0,0,1,.156,2.183A1.4,1.4,0,0,1,614.094,654.8Z" transform="translate(-501.232 -555.032)"/>
        </g>
        <g id="Group_160" data-name="Group 160" transform="translate(514.139 216.575)">
          <path id="Path_215" data-name="Path 215" d="M781.694,702.612c-2.807,0-4.756-3.82-5.925-7.016-.624-1.637-1.091-3.274-1.637-4.834-2.807-8.576-5.223-15.9-15.514-26.9-2.261-2.417-6.549-6.237-12.006-10.992l-2.417-2.1-2.495-3.9,30.717-39.37,3.742,2.807c21.829,23.622,36.486,40.7,40.072,61.9,1.715,9.9.39,14.033-1.091,15.748a3.926,3.926,0,0,1-3.118,1.4,5.791,5.791,0,0,1-1.715-.234l-1.949-.624-.078,2.027a11.975,11.975,0,0,1-.858,3.9,5.516,5.516,0,0,1-5.457,3.742,8.8,8.8,0,0,1-2.339-.312l-1.169-.234-.546,1.013a6.73,6.73,0,0,1-5.613,3.586,9.576,9.576,0,0,1-5.067-1.715l-1.091-.7-.858.935A5.088,5.088,0,0,1,781.694,702.612Z" transform="translate(-739.829 -605.317)" fill="#fff"/>
          <path id="Path_216" data-name="Path 216" d="M772.277,609.066l2.417,1.793c21.6,23.388,36.018,40.228,39.6,61.043.624,3.43,1.715,11.616-.78,14.5a2.211,2.211,0,0,1-1.949.858,8.393,8.393,0,0,1-1.247-.156l-3.9-1.247-.156,4.132a11.819,11.819,0,0,1-.7,3.352,3.9,3.9,0,0,1-3.976,2.729,8.841,8.841,0,0,1-1.949-.234l-2.261-.468-1.169,2.027c-.156.312-1.637,2.807-4.288,2.807a7.863,7.863,0,0,1-4.21-1.481l-2.1-1.325-1.793,1.793a4.3,4.3,0,0,1-2.573,1.325c-1.481,0-3.118-2.261-4.444-6-.546-1.637-1.091-3.274-1.637-4.756-2.729-8.342-5.3-16.216-15.826-27.52-2.339-2.495-6.627-6.315-12.162-11.07l-2.183-1.949-1.793-2.807,29.079-37.343m-.624-4.366L739.3,646.175l3.2,4.99,2.573,2.261c5.457,4.756,9.667,8.5,11.928,10.837,10.057,10.759,12.474,18.009,15.124,26.351.546,1.559,1.014,3.2,1.637,4.834,1.871,5.379,4.366,8.03,7.328,8.03,2.417,0,4.366-1.871,4.834-2.261a10.859,10.859,0,0,0,5.847,1.949c4.366,0,6.627-3.664,7.016-4.366a11.1,11.1,0,0,0,2.651.312,7.065,7.065,0,0,0,6.861-4.678,12.988,12.988,0,0,0,.936-4.444,6.647,6.647,0,0,0,2.261.312h0a5.612,5.612,0,0,0,4.366-1.949q3.625-4.327,1.4-17.073c-3.742-21.673-18.477-38.9-40.618-62.836l-4.99-3.742Z" transform="translate(-739.3 -604.7)"/>
        </g>
        <path id="Path_217" data-name="Path 217" d="M719.875,610.613c-17.775-15.592-54.651-47.946-70.477-83.106-19.958-44.36-10.525-92.54-10.447-93.007v-.078L659.143,420.7,683,435.669v.078c7.094,34.459,28.066,85.835,57.145,117.253,2.417,2.573,4.678,5.067,6.939,7.484,2.417,2.573,4.756,5.067,7.016,7.562l.078.078-34.225,42.645Z" transform="translate(-202.54 -347.573)" fill="#6c79d9"/>
        <g id="Group_161" data-name="Group 161" transform="translate(432.672 102.285)">
          <path id="Path_218" data-name="Path 218" d="M679.55,581.668a1.506,1.506,0,0,1-1.169-.546c-14.033-15.67-24.324-30.717-30.639-44.75-12.63-28.066-13.8-57.223-12.552-76.792a1.561,1.561,0,0,1,3.118.156c-1.247,19.178-.156,47.79,12.24,75.232,6.237,13.8,16.372,28.534,30.171,43.97a1.512,1.512,0,0,1-.156,2.183A1.136,1.136,0,0,1,679.55,581.668Z" transform="translate(-634.803 -458.1)"/>
        </g>
        <path id="Path_219" data-name="Path 219" d="M140.972,638.8a33.441,33.441,0,0,1-16.216-3.82l-.156-.078,69.151-100.1h.078c.156.078,17.307,4.99,55.508,21.205l27.988,13.331-.156.156c-2.962,3.664-7.484,7.25-12.786,11.382-7.484,5.847-15.9,12.552-22.453,21.517-10.135,13.721-13.643,31.418-13.721,31.652v.156l-.156-.078c-9.667-3.352-17.7-4.99-24.558-4.99-1.325,0-2.573.078-3.742.156a269.3,269.3,0,0,0-33.6,5.691C156.642,637.007,148.378,638.8,140.972,638.8Z" transform="translate(-89.687 -372.719)" fill="#6c79d9"/>
        <g id="Group_162" data-name="Group 162" transform="translate(431.032 55.586)">
          <path id="Path_220" data-name="Path 220" d="M648.421,427.742a13.721,13.721,0,1,1,13.721-13.721A13.741,13.741,0,0,1,648.421,427.742Z" transform="translate(-633.141 -398.663)" fill="#fff"/>
          <path id="Path_221" data-name="Path 221" d="M647.98,401.318a12.162,12.162,0,1,1-12.162,12.162,12.178,12.178,0,0,1,12.162-12.162m0-3.118a15.28,15.28,0,1,0,15.28,15.28,15.305,15.305,0,0,0-15.28-15.28Z" transform="translate(-632.7 -398.2)"/>
        </g>
        <g id="Group_163" data-name="Group 163" transform="translate(447.868 20.816)">
          <path id="Path_222" data-name="Path 222" d="M683.442,429.373c-7.328,0-13.877-5.145-18.321-14.579-14.111-29.7-9.589-41.475,2.261-50.675.078-.078,11.46-8.42,24.636-8.42a28.133,28.133,0,0,1,12.474,2.807c9.979,4.834,12.4,23.934,5.535,44.438-5.223,15.826-15.9,26.429-26.585,26.429Z" transform="translate(-654.748 -354.063)" fill="#fff"/>
          <path id="Path_223" data-name="Path 223" d="M691.564,356.718a26.08,26.08,0,0,1,11.772,2.651c9.121,4.444,11.226,23.154,4.756,42.567-5.068,15.2-15.2,25.415-25.181,25.415-6.7,0-12.708-4.834-16.918-13.721-13.643-28.768-9.511-39.994,1.793-48.8.546-.312,11.3-8.108,23.778-8.108m0-3.118c-13.955,0-25.649,8.81-25.649,8.81-13.409,10.447-16.372,23.778-2.729,52.624,5.068,10.681,12.318,15.514,19.724,15.514,10.992,0,22.453-10.447,28.144-27.52,7.172-21.6,4.21-41.241-6.393-46.387a28.718,28.718,0,0,0-13.1-3.04Z" transform="translate(-654.295 -353.6)"/>
        </g>
        <path id="Path_224" data-name="Path 224" d="M704.747,356.658c-18.866-9.2-38.824,5.847-38.824,5.847-8.342,6.471-12.63,14.111-11.382,25.961l58.393-21.517C711.3,362.037,708.489,358.451,704.747,356.658Z" transform="translate(-206.434 -332.802)"/>
        <circle id="Ellipse_3" data-name="Ellipse 3" cx="13.409" cy="13.409" r="13.409" transform="translate(448.262 0)"/>
        <g id="Group_164" data-name="Group 164" transform="translate(490.253 51.759)">
          <path id="Path_225" data-name="Path 225" d="M710.251,410.06a1.642,1.642,0,0,1-1.4-.858,1.535,1.535,0,0,1,.624-2.1,3.991,3.991,0,0,0,1.793-1.793c.78-1.559.312-6.315-.156-10.291a1.533,1.533,0,1,1,3.04-.39c.858,6.861.78,10.135-.156,12.084a7.515,7.515,0,0,1-3.118,3.118A.885.885,0,0,1,710.251,410.06Z" transform="translate(-708.662 -393.29)"/>
        </g>
        <g id="Group_165" data-name="Group 165" transform="translate(482.331 54.183)">
          <path id="Path_226" data-name="Path 226" d="M700.059,401.156A1.564,1.564,0,0,1,698.5,399.6v-1.637a1.559,1.559,0,1,1,3.118,0V399.6A1.564,1.564,0,0,1,700.059,401.156Z" transform="translate(-698.5 -396.4)"/>
        </g>
        <g id="Group_166" data-name="Group 166" transform="translate(499.95 50.207)">
          <path id="Path_227" data-name="Path 227" d="M722.659,395.978a1.564,1.564,0,0,1-1.559-1.559v-1.559a1.559,1.559,0,1,1,3.118,0v1.559A1.564,1.564,0,0,1,722.659,395.978Z" transform="translate(-721.1 -391.3)"/>
        </g>
        <g id="Group_167" data-name="Group 167" transform="translate(479.908 68.6)">
          <path id="Path_228" data-name="Path 228" d="M702.1,422.928a6.7,6.7,0,0,1-6.7-6.393,1.561,1.561,0,1,1,3.118-.156,3.551,3.551,0,0,0,3.82,3.43c.156,0,.39-.078.624-.078a1.56,1.56,0,0,1,.7,3.04,5.08,5.08,0,0,1-1.247.234C702.337,422.928,702.259,422.928,702.1,422.928Z" transform="translate(-695.392 -414.892)"/>
        </g>
        <g id="Group_168" data-name="Group 168" transform="translate(441.49 67.837)">
          <path id="Path_229" data-name="Path 229" d="M647.662,420.218a1.565,1.565,0,0,1-1.481-1.091,1.547,1.547,0,0,1,1.013-1.949l9.589-3.2a1.553,1.553,0,1,1,.936,2.962l-9.589,3.2A.988.988,0,0,1,647.662,420.218Z" transform="translate(-646.114 -413.914)"/>
        </g>
        <g id="Group_169" data-name="Group 169" transform="translate(494.68 197.818)">
          <path id="Path_230" data-name="Path 230" d="M715.868,628.477a1.361,1.361,0,0,1-.936-.312,1.514,1.514,0,0,1-.234-2.183l35.862-44.75a1.552,1.552,0,1,1,2.417,1.949l-35.862,44.75A1.84,1.84,0,0,1,715.868,628.477Z" transform="translate(-714.341 -580.641)"/>
        </g>
        <g id="Group_170" data-name="Group 170" transform="translate(549.582 272.054)">
          <path id="Path_231" data-name="Path 231" d="M795.94,716.665h0a1.581,1.581,0,0,1-1.559-1.637c.78-17.775-9.277-36.642-9.433-36.875a1.552,1.552,0,0,1,2.729-1.481c.468.78,10.525,19.88,9.745,38.435A1.414,1.414,0,0,1,795.94,716.665Z" transform="translate(-784.762 -675.862)"/>
        </g>
        <g id="Group_171" data-name="Group 171" transform="translate(559.191 265.603)">
          <path id="Path_232" data-name="Path 232" d="M810.663,712.425h-.156a1.573,1.573,0,0,1-1.4-1.715c1.559-19.256-11.616-40.462-11.772-40.7a1.579,1.579,0,0,1,2.651-1.715c.546.936,13.877,22.3,12.24,42.567A1.614,1.614,0,0,1,810.663,712.425Z" transform="translate(-797.088 -667.588)"/>
        </g>
        <g id="Group_172" data-name="Group 172" transform="translate(569.068 259.966)">
          <path id="Path_233" data-name="Path 233" d="M823.356,702.8a1.6,1.6,0,0,1-1.559-1.481c-1.559-23.232-11.616-38.357-11.772-38.513a1.568,1.568,0,0,1,2.573-1.793c.468.624,10.6,15.9,12.24,40.072a1.518,1.518,0,0,1-1.481,1.637C823.434,702.8,823.434,702.8,823.356,702.8Z" transform="translate(-809.757 -660.357)"/>
        </g>
        <g id="Group_173" data-name="Group 173" transform="translate(125.995 239.754)">
          <path id="Path_234" data-name="Path 234" d="M242.966,654.287h-.312a1.494,1.494,0,0,1-1.169-1.871l3.742-16.762a1.56,1.56,0,1,1,3.04.7l-3.742,16.762A1.661,1.661,0,0,1,242.966,654.287Z" transform="translate(-241.43 -634.43)"/>
        </g>
        <g id="Group_174" data-name="Group 174" transform="translate(109.755 238.015)">
          <path id="Path_235" data-name="Path 235" d="M222.471,652.86a1.564,1.564,0,0,1-1.559-1.559l-.312-17.541a1.564,1.564,0,0,1,1.559-1.559h0a1.564,1.564,0,0,1,1.559,1.559l.312,17.541a1.564,1.564,0,0,1-1.559,1.559Z" transform="translate(-220.6 -632.2)"/>
        </g>
        <g id="Group_175" data-name="Group 175" transform="translate(88.921 242.439)">
          <path id="Path_236" data-name="Path 236" d="M200.287,655.358a1.565,1.565,0,0,1-1.481-1.091l-4.834-14.345a1.553,1.553,0,1,1,2.962-.936l4.834,14.345a1.489,1.489,0,0,1-1.013,1.949A.988.988,0,0,1,200.287,655.358Z" transform="translate(-193.876 -637.876)"/>
        </g>
        <g id="Group_176" data-name="Group 176" transform="translate(401.41 480.398)">
          <path id="Path_237" data-name="Path 237" d="M596.26,953.392a1.428,1.428,0,0,1-1.4-.936,1.484,1.484,0,0,1,.78-2.027l15.982-7.172a1.536,1.536,0,1,1,1.247,2.807l-15.982,7.172A1.468,1.468,0,0,1,596.26,953.392Z" transform="translate(-594.704 -943.104)"/>
        </g>
        <g id="Group_177" data-name="Group 177" transform="translate(395.007 467.914)">
          <path id="Path_238" data-name="Path 238" d="M588.057,932.243a1.526,1.526,0,0,1-.234-3.041l16.294-2.1a1.533,1.533,0,1,1,.39,3.04l-16.294,2.1Z" transform="translate(-586.491 -927.091)"/>
        </g>
        <g id="Group_178" data-name="Group 178" transform="translate(413.403 492.001)">
          <path id="Path_239" data-name="Path 239" d="M611.656,971.094a1.506,1.506,0,0,1-1.169-.546,1.577,1.577,0,0,1,.078-2.183l11.07-9.979a1.545,1.545,0,1,1,2.1,2.261l-11.07,9.979A1.257,1.257,0,0,1,611.656,971.094Z" transform="translate(-610.087 -957.987)"/>
        </g>
        <g id="Group_179" data-name="Group 179" transform="translate(326.253 489.205)">
          <path id="Path_240" data-name="Path 240" d="M540.555,994.394a1.532,1.532,0,0,1-1.559-1.4c-2.963-24.558-21.829-35.472-39.136-35.472a1.559,1.559,0,1,1,0-3.118c18.711,0,39.058,11.85,42.255,38.279a1.515,1.515,0,0,1-1.325,1.715Z" transform="translate(-498.3 -954.4)"/>
        </g>
        <g id="Group_180" data-name="Group 180" transform="translate(78.481 174.402)">
          <path id="Path_241" data-name="Path 241" d="M200.611,578.979a41.983,41.983,0,0,1-19.256-4.6,1.569,1.569,0,0,1,1.4-2.807c12.474,6.471,24.87,4.444,33.055,1.559,11.928-4.132,22.531-12.864,26.429-21.6a1.484,1.484,0,0,1,2.027-.78,1.507,1.507,0,0,1,.78,2.027c-4.21,9.511-15.592,18.867-28.3,23.31A48.269,48.269,0,0,1,200.611,578.979Z" transform="translate(-180.485 -550.604)"/>
        </g>
        <g id="Group_181" data-name="Group 181" transform="translate(378.212 231.893)">
          <path id="Path_242" data-name="Path 242" d="M566.548,637.408a1.719,1.719,0,0,1-1.169-.468,1.507,1.507,0,0,1,.078-2.183l10.525-9.979a1.507,1.507,0,0,1,2.183.078,1.577,1.577,0,0,1-.078,2.183l-10.525,9.979A1.482,1.482,0,0,1,566.548,637.408Z" transform="translate(-564.948 -624.348)"/>
        </g>
      </g>
    </g>
  </g>
</svg>
